<svg width="142.82" height="19.18" viewBox="0 0 142.82 19.18" xmlns="http://www.w3.org/2000/svg"><g id="svgGroup" stroke-linecap="round" fill-rule="evenodd" font-size="9pt" stroke="#000" stroke-width="0" fill="#000" style="stroke:#000;stroke-width:0;fill:#000"><path d="M 3.4 15.38 L 3.4 3.34 L 3.62 3.54 L 0.96 5.32 Q 0.8 5.44 0.62 5.44 A 0.55 0.55 0 0 1 0.272 5.315 A 0.775 0.775 0 0 1 0.19 5.24 Q 0 5.04 0 4.8 A 0.519 0.519 0 0 1 0.195 4.385 A 0.807 0.807 0 0 1 0.32 4.3 L 3.66 2.08 Q 3.78 2 3.91 1.98 Q 4.018 1.963 4.105 1.974 A 0.488 0.488 0 0 1 4.14 1.98 A 0.691 0.691 0 0 1 4.317 2.016 A 0.497 0.497 0 0 1 4.54 2.17 A 0.612 0.612 0 0 1 4.678 2.528 A 0.785 0.785 0 0 1 4.68 2.58 L 4.68 15.38 Q 4.68 15.62 4.5 15.8 A 0.607 0.607 0 0 1 4.109 15.977 A 0.816 0.816 0 0 1 4.04 15.98 A 0.711 0.711 0 0 1 3.816 15.946 A 0.592 0.592 0 0 1 3.58 15.8 A 0.627 0.627 0 0 1 3.449 15.615 A 0.564 0.564 0 0 1 3.4 15.38 Z" id="0" vector-effect="non-scaling-stroke"/><path d="M 9.84 14.82 L 16.4 14.82 Q 16.64 14.82 16.81 14.99 A 0.558 0.558 0 0 1 16.98 15.393 A 0.672 0.672 0 0 1 16.98 15.4 A 0.646 0.646 0 0 1 16.952 15.595 A 0.519 0.519 0 0 1 16.81 15.82 Q 16.64 15.98 16.4 15.98 L 8.9 15.98 A 0.755 0.755 0 0 1 8.64 15.936 A 0.681 0.681 0 0 1 8.45 15.83 A 0.481 0.481 0 0 1 8.279 15.553 A 0.757 0.757 0 0 1 8.26 15.38 A 0.62 0.62 0 0 1 8.345 15.071 A 0.84 0.84 0 0 1 8.42 14.96 L 13.04 9.86 A 15.961 15.961 0 0 0 13.788 8.987 Q 14.137 8.546 14.402 8.134 A 7.687 7.687 0 0 0 14.69 7.65 A 5.649 5.649 0 0 0 15.003 6.98 Q 15.14 6.625 15.198 6.299 A 2.627 2.627 0 0 0 15.24 5.84 A 3.53 3.53 0 0 0 15.12 4.897 A 2.623 2.623 0 0 0 14.44 3.72 A 2.668 2.668 0 0 0 13.038 2.991 A 3.883 3.883 0 0 0 12.28 2.92 A 3.079 3.079 0 0 0 11.165 3.134 A 3.548 3.548 0 0 0 11.05 3.18 Q 10.44 3.44 9.97 3.86 Q 9.5 4.28 9.24 4.82 Q 9.161 4.951 9.078 5.031 A 0.529 0.529 0 0 1 8.99 5.1 Q 8.86 5.18 8.7 5.18 A 0.636 0.636 0 0 1 8.28 5.03 A 0.524 0.524 0 0 1 8.161 4.892 A 0.452 0.452 0 0 1 8.1 4.66 A 0.596 0.596 0 0 1 8.141 4.446 A 0.732 0.732 0 0 1 8.17 4.38 Q 8.222 4.276 8.313 4.149 A 2.984 2.984 0 0 1 8.38 4.06 A 3.895 3.895 0 0 1 8.973 3.289 A 4.876 4.876 0 0 1 9.38 2.92 Q 10.02 2.4 10.81 2.09 A 4.517 4.517 0 0 1 11.774 1.825 A 3.851 3.851 0 0 1 12.36 1.78 A 5.632 5.632 0 0 1 13.413 1.874 A 4.117 4.117 0 0 1 14.57 2.27 Q 15.5 2.76 16.01 3.65 A 3.782 3.782 0 0 1 16.448 4.891 A 5.051 5.051 0 0 1 16.52 5.76 A 3.9 3.9 0 0 1 16.377 6.777 Q 16.256 7.224 16.034 7.702 A 7.438 7.438 0 0 1 15.87 8.03 Q 15.338 9.038 14.382 10.173 A 19.792 19.792 0 0 1 13.94 10.68 L 10.04 15.06 L 9.84 14.82 Z" id="1" vector-effect="non-scaling-stroke"/><path d="M 21.3 7.32 L 25.36 2.9 L 25.6 3.22 L 19.54 3.22 Q 19.3 3.22 19.13 3.05 A 0.558 0.558 0 0 1 18.96 2.647 A 0.672 0.672 0 0 1 18.96 2.64 A 0.555 0.555 0 0 1 19.005 2.415 A 0.533 0.533 0 0 1 19.13 2.24 Q 19.3 2.08 19.54 2.08 L 26.26 2.08 A 0.862 0.862 0 0 1 26.436 2.097 Q 26.539 2.118 26.616 2.168 A 0.423 0.423 0 0 1 26.74 2.29 A 0.947 0.947 0 0 1 26.828 2.453 Q 26.873 2.56 26.879 2.666 A 0.576 0.576 0 0 1 26.88 2.7 Q 26.88 2.82 26.82 2.93 Q 26.76 3.04 26.66 3.16 L 22.6 7.58 L 22.16 7.32 Q 22.208 7.272 22.446 7.217 A 4.243 4.243 0 0 1 22.57 7.19 Q 22.872 7.13 23.062 7.121 A 1.329 1.329 0 0 1 23.12 7.12 Q 24.22 7.12 25.19 7.64 Q 26.16 8.16 26.77 9.13 Q 27.372 10.087 27.38 11.483 A 6.571 6.571 0 0 1 27.38 11.52 A 5.018 5.018 0 0 1 27.21 12.852 A 4.152 4.152 0 0 1 26.72 13.97 Q 26.06 15.02 24.94 15.6 A 5.234 5.234 0 0 1 22.755 16.173 A 6.201 6.201 0 0 1 22.46 16.18 Q 21.64 16.18 20.84 15.9 Q 20.04 15.62 19.44 15.06 A 1.084 1.084 0 0 1 19.346 14.97 Q 19.278 14.895 19.24 14.82 A 0.578 0.578 0 0 1 19.192 14.685 A 0.49 0.49 0 0 1 19.18 14.58 A 0.674 0.674 0 0 1 19.29 14.213 A 0.887 0.887 0 0 1 19.35 14.13 A 0.583 0.583 0 0 1 19.516 13.987 A 0.528 0.528 0 0 1 19.78 13.92 A 0.562 0.562 0 0 1 19.909 13.936 A 0.72 0.72 0 0 1 19.99 13.96 A 0.491 0.491 0 0 1 20.064 13.995 Q 20.138 14.037 20.23 14.114 A 1.989 1.989 0 0 1 20.26 14.14 Q 20.68 14.58 21.26 14.81 A 3.207 3.207 0 0 0 22.005 15.002 A 4.192 4.192 0 0 0 22.58 15.04 A 3.781 3.781 0 0 0 23.928 14.803 A 3.567 3.567 0 0 0 24.37 14.6 Q 25.18 14.16 25.66 13.37 Q 26.14 12.58 26.14 11.56 A 4.299 4.299 0 0 0 26.074 10.784 Q 25.993 10.345 25.814 9.992 A 2.335 2.335 0 0 0 25.63 9.69 Q 25.12 8.98 24.33 8.63 A 3.948 3.948 0 0 0 22.784 8.281 A 3.835 3.835 0 0 0 22.72 8.28 Q 22.5 8.28 22.29 8.31 A 5.622 5.622 0 0 0 22.045 8.35 A 4.551 4.551 0 0 0 21.9 8.38 A 2.551 2.551 0 0 1 21.805 8.399 Q 21.692 8.42 21.62 8.42 A 0.636 0.636 0 0 1 21.456 8.4 A 0.446 0.446 0 0 1 21.22 8.25 A 0.604 0.604 0 0 1 21.092 7.966 A 0.834 0.834 0 0 1 21.08 7.82 Q 21.08 7.68 21.14 7.57 A 1.844 1.844 0 0 1 21.191 7.483 Q 21.238 7.408 21.3 7.32 Z" id="2" vector-effect="non-scaling-stroke"/><path d="M 35.24 15.38 L 35.24 3.64 L 35.5 3.8 L 30.24 10.76 L 30.18 10.54 L 37.86 10.54 Q 38.1 10.54 38.27 10.7 A 0.524 0.524 0 0 1 38.44 11.081 A 0.664 0.664 0 0 1 38.44 11.1 A 0.555 0.555 0 0 1 38.396 11.325 A 0.533 0.533 0 0 1 38.27 11.5 Q 38.1 11.66 37.86 11.66 L 29.36 11.66 Q 29.12 11.66 28.94 11.47 A 0.683 0.683 0 0 1 28.814 11.288 A 0.582 0.582 0 0 1 28.76 11.04 Q 28.76 10.82 28.9 10.64 L 35.34 2.22 A 0.536 0.536 0 0 1 35.462 2.095 A 0.473 0.473 0 0 1 35.59 2.03 A 1.304 1.304 0 0 1 35.679 2.004 Q 35.724 1.992 35.764 1.986 A 0.519 0.519 0 0 1 35.84 1.98 A 0.615 0.615 0 0 1 36.064 2.02 A 0.559 0.559 0 0 1 36.27 2.16 Q 36.44 2.34 36.44 2.58 L 36.44 15.38 Q 36.44 15.62 36.26 15.8 A 0.597 0.597 0 0 1 35.828 15.98 A 0.745 0.745 0 0 1 35.82 15.98 A 0.609 0.609 0 0 1 35.618 15.948 A 0.516 0.516 0 0 1 35.4 15.8 Q 35.24 15.62 35.24 15.38 Z" id="3" vector-effect="non-scaling-stroke"/><path d="M 40.54 7.92 L 41.4 2.58 A 0.453 0.453 0 0 1 41.483 2.367 Q 41.523 2.31 41.582 2.257 A 0.828 0.828 0 0 1 41.59 2.25 A 0.593 0.593 0 0 1 41.907 2.108 A 0.806 0.806 0 0 1 42.02 2.1 L 48.04 2.1 Q 48.28 2.1 48.45 2.27 A 0.558 0.558 0 0 1 48.62 2.673 A 0.672 0.672 0 0 1 48.62 2.68 A 0.651 0.651 0 0 1 48.585 2.897 A 0.561 0.561 0 0 1 48.45 3.11 A 0.558 0.558 0 0 1 48.048 3.28 A 0.672 0.672 0 0 1 48.04 3.28 L 42.3 3.28 L 42.48 3.1 L 41.66 7.84 L 41.3 7.58 Q 41.475 7.446 41.753 7.311 A 5.253 5.253 0 0 1 42.05 7.18 A 7.078 7.078 0 0 1 42.639 6.971 A 9.154 9.154 0 0 1 43.15 6.83 A 5.264 5.264 0 0 1 44.188 6.685 A 5.993 5.993 0 0 1 44.44 6.68 A 5.065 5.065 0 0 1 45.814 6.86 A 4.331 4.331 0 0 1 46.76 7.25 Q 47.78 7.82 48.37 8.83 Q 48.96 9.84 48.96 11.16 A 5.716 5.716 0 0 1 48.812 12.488 A 4.523 4.523 0 0 1 48.33 13.71 Q 47.7 14.8 46.56 15.41 A 5.034 5.034 0 0 1 45.058 15.919 A 6.821 6.821 0 0 1 43.86 16.02 A 5.275 5.275 0 0 1 42.314 15.783 A 5.946 5.946 0 0 1 42.21 15.75 Q 41.38 15.48 40.74 14.94 Q 40.62 14.84 40.55 14.7 A 0.674 0.674 0 0 1 40.493 14.543 A 0.572 0.572 0 0 1 40.48 14.42 A 0.531 0.531 0 0 1 40.542 14.175 A 0.778 0.778 0 0 1 40.64 14.031 A 0.516 0.516 0 0 1 41.016 13.841 A 0.678 0.678 0 0 1 41.06 13.84 A 0.588 0.588 0 0 1 41.308 13.897 Q 41.389 13.934 41.47 13.996 A 1.113 1.113 0 0 1 41.5 14.02 Q 42.02 14.42 42.63 14.64 Q 43.24 14.86 43.86 14.86 Q 45.04 14.86 45.92 14.41 Q 46.8 13.96 47.28 13.13 A 3.56 3.56 0 0 0 47.721 11.805 A 4.563 4.563 0 0 0 47.76 11.2 A 3.981 3.981 0 0 0 47.663 10.303 A 3.085 3.085 0 0 0 47.32 9.43 Q 46.88 8.68 46.07 8.25 A 3.61 3.61 0 0 0 44.975 7.886 A 4.855 4.855 0 0 0 44.16 7.82 A 4.087 4.087 0 0 0 43.391 7.89 A 3.345 3.345 0 0 0 42.85 8.04 A 10.391 10.391 0 0 0 42.364 8.234 Q 42.127 8.337 41.923 8.442 A 5.898 5.898 0 0 0 41.83 8.49 A 3.088 3.088 0 0 1 41.605 8.6 Q 41.328 8.72 41.14 8.72 Q 40.914 8.72 40.768 8.614 A 0.492 0.492 0 0 1 40.75 8.6 Q 40.6 8.48 40.55 8.3 Q 40.503 8.13 40.536 7.942 A 0.971 0.971 0 0 1 40.54 7.92 Z" id="4" vector-effect="non-scaling-stroke"/><path d="M 52.68 9.16 L 52.24 9.42 Q 52.6 8.76 53.17 8.25 Q 53.74 7.74 54.48 7.43 Q 55.22 7.12 56.08 7.12 Q 56.98 7.12 57.74 7.5 Q 58.5 7.88 59.05 8.53 Q 59.6 9.18 59.91 10 Q 60.22 10.82 60.22 11.7 Q 60.22 12.88 59.65 13.9 Q 59.08 14.92 58.09 15.55 A 4.05 4.05 0 0 1 56.155 16.169 A 4.979 4.979 0 0 1 55.82 16.18 A 5.42 5.42 0 0 1 54.796 16.088 A 4.072 4.072 0 0 1 53.79 15.76 A 4.168 4.168 0 0 1 52.574 14.886 A 3.956 3.956 0 0 1 52.35 14.63 Q 51.78 13.92 51.51 13.02 Q 51.24 12.12 51.24 11.18 A 8.802 8.802 0 0 1 51.316 10.053 A 11.348 11.348 0 0 1 51.48 9.11 Q 51.72 8 52.22 6.86 Q 52.72 5.72 53.45 4.7 Q 54.18 3.68 55.15 2.87 Q 56.12 2.06 57.34 1.6 A 1.279 1.279 0 0 1 57.436 1.576 Q 57.481 1.567 57.521 1.563 A 0.591 0.591 0 0 1 57.58 1.56 Q 57.84 1.56 58.03 1.7 Q 58.188 1.816 58.215 2.071 A 1.048 1.048 0 0 1 58.22 2.18 Q 58.22 2.38 58.09 2.53 A 0.755 0.755 0 0 1 57.884 2.695 A 0.997 0.997 0 0 1 57.74 2.76 Q 56.9 3.12 56.08 3.78 Q 55.26 4.44 54.56 5.3 Q 53.86 6.16 53.37 7.15 Q 52.88 8.14 52.68 9.16 Z M 55.8 15.02 Q 56.72 15.02 57.44 14.6 Q 58.16 14.18 58.57 13.43 A 3.332 3.332 0 0 0 58.944 12.262 A 4.242 4.242 0 0 0 58.98 11.7 A 4.061 4.061 0 0 0 58.758 10.348 A 3.819 3.819 0 0 0 58.63 10.03 Q 58.28 9.26 57.59 8.77 A 2.597 2.597 0 0 0 56.571 8.343 A 3.599 3.599 0 0 0 55.88 8.28 A 3.926 3.926 0 0 0 54.954 8.385 A 3.056 3.056 0 0 0 54.05 8.76 Q 53.28 9.24 52.87 10.03 A 3.686 3.686 0 0 0 52.46 11.701 A 4.278 4.278 0 0 0 52.46 11.76 Q 52.46 12.6 52.86 13.35 Q 53.26 14.1 54.01 14.56 A 3.074 3.074 0 0 0 55.119 14.966 A 4.102 4.102 0 0 0 55.8 15.02 Z" id="5" vector-effect="non-scaling-stroke"/><path d="M 63.82 15.18 L 69.14 2.96 L 69.36 3.24 L 62.6 3.24 Q 62.36 3.24 62.19 3.07 A 0.558 0.558 0 0 1 62.02 2.667 A 0.672 0.672 0 0 1 62.02 2.66 A 0.646 0.646 0 0 1 62.048 2.465 A 0.519 0.519 0 0 1 62.19 2.24 Q 62.36 2.08 62.6 2.08 L 69.94 2.08 Q 70.136 2.08 70.264 2.148 A 0.409 0.409 0 0 1 70.38 2.24 Q 70.52 2.4 70.52 2.64 Q 70.52 2.8 70.46 2.94 L 64.96 15.64 Q 64.9 15.82 64.74 15.93 A 0.626 0.626 0 0 1 64.548 16.02 A 0.566 0.566 0 0 1 64.4 16.04 A 0.683 0.683 0 0 1 63.982 15.897 A 0.857 0.857 0 0 1 63.96 15.88 Q 63.76 15.72 63.76 15.48 A 0.749 0.749 0 0 1 63.778 15.321 A 1.018 1.018 0 0 1 63.82 15.18 Z" id="6" vector-effect="non-scaling-stroke"/><path d="M 78.38 8.94 L 78.32 8.76 Q 79 9.02 79.56 9.53 Q 80.12 10.04 80.46 10.73 A 3.344 3.344 0 0 1 80.799 12.138 A 3.898 3.898 0 0 1 80.8 12.24 Q 80.8 13.32 80.23 14.2 A 4.077 4.077 0 0 1 78.741 15.567 A 4.786 4.786 0 0 1 78.68 15.6 Q 77.7 16.12 76.5 16.12 A 4.91 4.91 0 0 1 75.173 15.946 A 4.231 4.231 0 0 1 74.31 15.6 Q 73.34 15.08 72.77 14.2 Q 72.2 13.32 72.2 12.24 A 3.788 3.788 0 0 1 72.299 11.359 A 3.114 3.114 0 0 1 72.55 10.67 Q 72.9 9.98 73.47 9.5 A 4.888 4.888 0 0 1 74.24 8.965 A 4.214 4.214 0 0 1 74.66 8.76 L 74.6 8.96 A 3.834 3.834 0 0 1 73.746 8.393 A 4.428 4.428 0 0 1 73.59 8.25 A 3.609 3.609 0 0 1 72.88 7.291 A 4.141 4.141 0 0 1 72.82 7.17 Q 72.52 6.54 72.52 5.78 A 3.768 3.768 0 0 1 72.746 4.465 A 3.495 3.495 0 0 1 73.05 3.84 Q 73.58 2.98 74.49 2.48 A 4.089 4.089 0 0 1 76.432 1.981 A 4.8 4.8 0 0 1 76.5 1.98 Q 77.6 1.98 78.49 2.48 Q 79.38 2.98 79.91 3.84 A 3.59 3.59 0 0 1 80.438 5.638 A 4.315 4.315 0 0 1 80.44 5.78 A 3.485 3.485 0 0 1 80.35 6.585 A 2.891 2.891 0 0 1 80.14 7.18 Q 79.84 7.8 79.36 8.25 A 4.465 4.465 0 0 1 78.852 8.664 A 3.448 3.448 0 0 1 78.38 8.94 Z M 76.5 14.98 A 3.87 3.87 0 0 0 77.485 14.861 A 2.853 2.853 0 0 0 78.71 14.2 A 2.533 2.533 0 0 0 79.558 12.354 A 3.197 3.197 0 0 0 79.56 12.24 Q 79.56 11.44 79.14 10.8 Q 78.72 10.16 78.02 9.8 Q 77.32 9.44 76.5 9.44 Q 75.68 9.44 74.98 9.8 Q 74.28 10.16 73.86 10.8 Q 73.44 11.44 73.44 12.24 Q 73.44 13.42 74.28 14.2 A 2.853 2.853 0 0 0 75.69 14.904 A 4.102 4.102 0 0 0 76.5 14.98 Z M 73.76 5.78 A 2.844 2.844 0 0 0 73.86 6.546 A 2.363 2.363 0 0 0 74.14 7.18 Q 74.52 7.78 75.14 8.12 Q 75.76 8.46 76.5 8.46 Q 77.22 8.46 77.84 8.12 Q 78.46 7.78 78.83 7.18 Q 79.2 6.58 79.2 5.78 A 2.985 2.985 0 0 0 79.07 4.878 A 2.416 2.416 0 0 0 78.44 3.86 A 2.583 2.583 0 0 0 76.841 3.136 A 3.486 3.486 0 0 0 76.5 3.12 A 3.277 3.277 0 0 0 75.601 3.237 A 2.508 2.508 0 0 0 74.52 3.86 A 2.482 2.482 0 0 0 73.776 5.452 A 3.392 3.392 0 0 0 73.76 5.78 Z" id="7" vector-effect="non-scaling-stroke"/><path d="M 90.6 8.78 L 91.02 8.52 A 4.15 4.15 0 0 1 90.224 9.565 A 4.765 4.765 0 0 1 90.1 9.68 Q 89.52 10.2 88.79 10.49 A 4.154 4.154 0 0 1 87.518 10.77 A 4.896 4.896 0 0 1 87.2 10.78 A 4.361 4.361 0 0 1 86.051 10.635 A 3.531 3.531 0 0 1 84.99 10.15 Q 84.06 9.52 83.56 8.48 Q 83.06 7.44 83.06 6.24 Q 83.06 5.06 83.63 4.04 Q 84.2 3.02 85.19 2.39 A 4.048 4.048 0 0 1 87.206 1.766 A 4.894 4.894 0 0 1 87.44 1.76 A 5.584 5.584 0 0 1 88.446 1.846 A 4.08 4.08 0 0 1 89.49 2.18 A 4.109 4.109 0 0 1 90.619 2.972 A 3.832 3.832 0 0 1 90.92 3.31 Q 91.48 4.02 91.76 4.92 Q 92.04 5.82 92.04 6.76 A 8.374 8.374 0 0 1 91.952 7.946 A 10.56 10.56 0 0 1 91.79 8.81 A 11.925 11.925 0 0 1 91.225 10.594 A 13.56 13.56 0 0 1 91.05 11.01 Q 90.56 12.12 89.83 13.12 Q 89.1 14.12 88.12 14.92 Q 87.14 15.72 85.94 16.16 Q 85.78 16.2 85.68 16.2 Q 85.44 16.2 85.25 16.03 A 0.561 0.561 0 0 1 85.062 15.64 A 0.775 0.775 0 0 1 85.06 15.58 A 0.544 0.544 0 0 1 85.18 15.23 A 0.614 0.614 0 0 1 85.334 15.095 Q 85.404 15.051 85.49 15.018 A 1.158 1.158 0 0 1 85.54 15 A 7.354 7.354 0 0 0 87.002 14.168 A 9.187 9.187 0 0 0 87.74 13.57 Q 88.8 12.62 89.57 11.37 A 7.919 7.919 0 0 0 90.45 9.403 A 7.238 7.238 0 0 0 90.6 8.78 Z M 87.48 2.92 A 3.572 3.572 0 0 0 86.55 3.037 A 2.973 2.973 0 0 0 85.82 3.34 Q 85.1 3.76 84.69 4.51 A 3.332 3.332 0 0 0 84.316 5.678 A 4.242 4.242 0 0 0 84.28 6.24 Q 84.28 7.12 84.63 7.9 Q 84.98 8.68 85.68 9.15 A 2.727 2.727 0 0 0 86.742 9.567 A 3.687 3.687 0 0 0 87.38 9.62 A 4.138 4.138 0 0 0 88.256 9.532 A 3.039 3.039 0 0 0 89.22 9.15 Q 89.98 8.68 90.4 7.9 A 3.553 3.553 0 0 0 90.819 6.253 A 4.167 4.167 0 0 0 90.82 6.18 Q 90.82 5.32 90.42 4.58 Q 90.02 3.84 89.28 3.38 A 2.979 2.979 0 0 0 88.259 2.99 A 4.127 4.127 0 0 0 87.48 2.92 Z" id="8" vector-effect="non-scaling-stroke"/><path d="M 99 16.18 Q 97.4 16.18 96.32 15.22 A 5.304 5.304 0 0 1 95.158 13.715 A 7.092 7.092 0 0 1 94.7 12.63 A 10.478 10.478 0 0 1 94.249 10.557 A 13.474 13.474 0 0 1 94.16 8.98 A 13.253 13.253 0 0 1 94.304 6.985 A 10.203 10.203 0 0 1 94.7 5.31 A 6.803 6.803 0 0 1 95.3 3.972 A 5.119 5.119 0 0 1 96.32 2.73 Q 97.4 1.78 99 1.78 A 4.643 4.643 0 0 1 100.281 1.949 A 3.625 3.625 0 0 1 101.71 2.73 A 5.226 5.226 0 0 1 102.838 4.178 A 7.077 7.077 0 0 1 103.32 5.31 A 10.456 10.456 0 0 1 103.767 7.361 A 13.641 13.641 0 0 1 103.86 8.98 A 13.026 13.026 0 0 1 103.708 11.016 A 10.188 10.188 0 0 1 103.32 12.63 A 6.937 6.937 0 0 1 102.722 13.97 A 5.219 5.219 0 0 1 101.71 15.22 A 3.712 3.712 0 0 1 99.69 16.134 A 5.026 5.026 0 0 1 99 16.18 Z M 99 14.94 A 3.104 3.104 0 0 0 99.989 14.788 A 2.649 2.649 0 0 0 100.97 14.2 Q 101.683 13.532 102.086 12.368 A 7.009 7.009 0 0 0 102.17 12.11 Q 102.554 10.844 102.578 9.201 A 15.109 15.109 0 0 0 102.58 8.98 A 13.407 13.407 0 0 0 102.502 7.491 Q 102.401 6.589 102.17 5.83 A 6.115 6.115 0 0 0 101.809 4.903 Q 101.464 4.203 100.97 3.74 A 2.714 2.714 0 0 0 99.254 3.009 A 3.57 3.57 0 0 0 99 3 A 2.999 2.999 0 0 0 97.963 3.174 A 2.662 2.662 0 0 0 97.05 3.74 Q 96.337 4.408 95.934 5.572 A 7.009 7.009 0 0 0 95.85 5.83 A 9.002 9.002 0 0 0 95.549 7.243 Q 95.44 8.052 95.44 8.98 A 13.115 13.115 0 0 0 95.524 10.505 Q 95.616 11.29 95.809 11.97 A 7.822 7.822 0 0 0 95.85 12.11 A 6.115 6.115 0 0 0 96.211 13.037 Q 96.556 13.738 97.05 14.2 Q 97.84 14.94 99 14.94 Z" id="9" vector-effect="non-scaling-stroke"/><path d="M 106.4 11.64 L 106.18 2.8 A 1.518 1.518 0 0 1 106.199 2.551 Q 106.222 2.416 106.27 2.305 A 0.814 0.814 0 0 1 106.32 2.21 A 0.45 0.45 0 0 1 106.585 2.011 Q 106.665 1.987 106.764 1.981 A 1.047 1.047 0 0 1 106.82 1.98 Q 107.16 1.98 107.31 2.21 Q 107.442 2.413 107.442 2.717 A 1.495 1.495 0 0 1 107.44 2.8 L 107.22 11.64 Q 107.203 12.004 106.914 12.053 A 0.572 0.572 0 0 1 106.82 12.06 A 0.498 0.498 0 0 1 106.647 12.032 Q 106.432 11.953 106.401 11.646 A 0.934 0.934 0 0 1 106.4 11.64 Z M 106.88 15.98 L 106.76 15.98 Q 106.42 15.98 106.23 15.77 A 0.719 0.719 0 0 1 106.059 15.42 A 1.026 1.026 0 0 1 106.04 15.22 L 106.04 14.78 Q 106.04 14.497 106.158 14.312 A 0.613 0.613 0 0 1 106.23 14.22 Q 106.42 14.02 106.76 14.02 L 106.88 14.02 A 1.028 1.028 0 0 1 107.077 14.038 Q 107.19 14.06 107.277 14.11 A 0.501 0.501 0 0 1 107.41 14.22 Q 107.58 14.42 107.58 14.78 L 107.58 15.22 A 1.108 1.108 0 0 1 107.556 15.456 Q 107.517 15.638 107.41 15.77 A 0.534 0.534 0 0 1 107.141 15.945 Q 107.026 15.98 106.88 15.98 Z" id="10" vector-effect="non-scaling-stroke"/><path d="M 110.6 15.98 L 110.46 15.98 A 0.878 0.878 0 0 1 110.25 15.956 A 0.578 0.578 0 0 1 109.94 15.77 A 0.727 0.727 0 0 1 109.783 15.448 A 1.056 1.056 0 0 1 109.76 15.22 L 109.76 14.78 A 1.162 1.162 0 0 1 109.779 14.561 Q 109.804 14.432 109.861 14.331 A 0.613 0.613 0 0 1 109.94 14.22 Q 110.116 14.025 110.445 14.02 A 1.139 1.139 0 0 1 110.46 14.02 L 110.6 14.02 A 0.925 0.925 0 0 1 110.806 14.042 Q 110.999 14.086 111.12 14.22 A 0.66 0.66 0 0 1 111.262 14.482 Q 111.3 14.614 111.3 14.78 L 111.3 15.22 A 1.047 1.047 0 0 1 111.275 15.457 A 0.724 0.724 0 0 1 111.12 15.77 Q 110.94 15.98 110.6 15.98 Z M 110.6 7.64 L 110.46 7.64 A 0.878 0.878 0 0 1 110.25 7.616 A 0.578 0.578 0 0 1 109.94 7.43 A 0.727 0.727 0 0 1 109.783 7.108 A 1.056 1.056 0 0 1 109.76 6.88 L 109.76 6.46 Q 109.76 6.174 109.874 5.982 A 0.659 0.659 0 0 1 109.94 5.89 Q 110.12 5.68 110.46 5.68 L 110.6 5.68 A 0.878 0.878 0 0 1 110.81 5.704 A 0.578 0.578 0 0 1 111.12 5.89 A 0.711 0.711 0 0 1 111.266 6.174 Q 111.294 6.278 111.299 6.402 A 1.368 1.368 0 0 1 111.3 6.46 L 111.3 6.88 A 1.047 1.047 0 0 1 111.275 7.117 A 0.724 0.724 0 0 1 111.12 7.43 Q 110.94 7.64 110.6 7.64 Z" id="11" vector-effect="non-scaling-stroke"/><path d="M 112.64 17.7 L 121.34 0.48 A 1.764 1.764 0 0 1 121.42 0.337 Q 121.508 0.195 121.6 0.122 A 0.453 0.453 0 0 1 121.63 0.1 A 0.58 0.58 0 0 1 121.839 0.015 A 0.811 0.811 0 0 1 122 0 A 0.488 0.488 0 0 1 122.227 0.057 A 0.702 0.702 0 0 1 122.35 0.14 A 0.455 0.455 0 0 1 122.51 0.423 A 0.679 0.679 0 0 1 122.52 0.54 A 0.856 0.856 0 0 1 122.467 0.833 A 1.015 1.015 0 0 1 122.44 0.9 L 113.74 18.14 A 1.724 1.724 0 0 1 113.645 18.276 Q 113.552 18.394 113.46 18.46 Q 113.32 18.56 113.12 18.56 A 0.591 0.591 0 0 1 112.909 18.524 A 0.531 0.531 0 0 1 112.72 18.4 Q 112.56 18.24 112.56 18 A 0.565 0.565 0 0 1 112.581 17.85 Q 112.601 17.778 112.64 17.7 Z" id="12" vector-effect="non-scaling-stroke"/><path d="M 128.9 10.32 L 124.58 10.32 A 0.541 0.541 0 0 1 124.183 10.154 A 0.689 0.689 0 0 1 124.17 10.14 Q 124 9.96 124 9.7 Q 124 9.46 124.17 9.29 A 0.558 0.558 0 0 1 124.573 9.12 A 0.672 0.672 0 0 1 124.58 9.12 L 128.9 9.12 Q 129.14 9.12 129.32 9.3 A 0.597 0.597 0 0 1 129.5 9.732 A 0.745 0.745 0 0 1 129.5 9.74 A 0.541 0.541 0 0 1 129.334 10.137 A 0.689 0.689 0 0 1 129.32 10.15 Q 129.14 10.32 128.9 10.32 Z" id="13" vector-effect="non-scaling-stroke"/><path d="M 142.26 19.18 L 132.36 19.18 Q 132.1 19.18 131.95 19.02 Q 131.8 18.86 131.8 18.64 A 0.625 0.625 0 0 1 131.825 18.46 A 0.492 0.492 0 0 1 131.95 18.25 A 0.498 0.498 0 0 1 132.201 18.116 A 0.739 0.739 0 0 1 132.36 18.1 L 142.26 18.1 A 0.632 0.632 0 0 1 142.461 18.131 A 0.536 0.536 0 0 1 142.66 18.25 A 0.499 0.499 0 0 1 142.818 18.589 A 0.678 0.678 0 0 1 142.82 18.64 A 0.518 0.518 0 0 1 142.665 19.015 A 0.655 0.655 0 0 1 142.66 19.02 Q 142.5 19.18 142.26 19.18 Z" id="14" vector-effect="non-scaling-stroke"/></g></svg>