<svg width="269.66" height="18.8" viewBox="0 0 269.66 18.8" xmlns="http://www.w3.org/2000/svg"><g id="svgGroup" stroke-linecap="round" fill-rule="evenodd" font-size="9pt" stroke="#000" stroke-width="0" fill="#000" style="stroke:#000;stroke-width:0;fill:#000"><path d="M 9.58 5.2 L 9.58 14.2 Q 9.58 14.44 9.4 14.62 A 0.627 0.627 0 0 1 9.215 14.751 A 0.564 0.564 0 0 1 8.98 14.8 A 0.615 0.615 0 0 1 8.756 14.76 A 0.559 0.559 0 0 1 8.55 14.62 Q 8.38 14.44 8.38 14.2 L 8.38 11.82 L 8.72 11.66 A 2.212 2.212 0 0 1 8.587 12.401 A 2.897 2.897 0 0 1 8.41 12.8 A 3.933 3.933 0 0 1 7.846 13.592 A 4.73 4.73 0 0 1 7.56 13.88 A 4.289 4.289 0 0 1 6.47 14.61 A 4.933 4.933 0 0 1 6.29 14.69 A 3.961 3.961 0 0 1 4.773 15 A 4.523 4.523 0 0 1 4.72 15 A 4.507 4.507 0 0 1 3.078 14.706 A 4.221 4.221 0 0 1 2.29 14.3 A 4.772 4.772 0 0 1 0.688 12.531 A 5.678 5.678 0 0 1 0.61 12.38 A 5.809 5.809 0 0 1 0.031 10.313 A 7.104 7.104 0 0 1 0 9.64 Q 0 8.08 0.62 6.89 A 4.957 4.957 0 0 1 1.71 5.469 A 4.65 4.65 0 0 1 2.3 5.02 Q 3.36 4.34 4.7 4.34 A 4.361 4.361 0 0 1 6.049 4.546 A 4.082 4.082 0 0 1 6.31 4.64 Q 7.06 4.94 7.62 5.46 Q 8.18 5.98 8.49 6.65 Q 8.8 7.32 8.8 8.04 L 8.38 7.74 L 8.38 5.2 Q 8.38 4.94 8.55 4.76 A 0.563 0.563 0 0 1 8.96 4.58 A 0.736 0.736 0 0 1 8.98 4.58 A 0.615 0.615 0 0 1 9.204 4.62 A 0.559 0.559 0 0 1 9.41 4.76 Q 9.58 4.94 9.58 5.2 Z M 4.82 13.88 Q 5.88 13.88 6.7 13.33 A 3.666 3.666 0 0 0 7.835 12.103 A 4.45 4.45 0 0 0 7.99 11.81 A 4.724 4.724 0 0 0 8.436 10.172 A 5.757 5.757 0 0 0 8.46 9.64 A 5.088 5.088 0 0 0 8.311 8.388 A 4.286 4.286 0 0 0 7.99 7.52 A 3.953 3.953 0 0 0 7.065 6.303 A 3.781 3.781 0 0 0 6.7 6.02 A 3.226 3.226 0 0 0 4.952 5.462 A 3.93 3.93 0 0 0 4.82 5.46 Q 3.78 5.46 2.95 6 A 3.678 3.678 0 0 0 1.687 7.407 A 4.363 4.363 0 0 0 1.65 7.48 A 4.41 4.41 0 0 0 1.236 8.834 A 5.659 5.659 0 0 0 1.18 9.64 A 5.281 5.281 0 0 0 1.344 10.976 A 4.523 4.523 0 0 0 1.65 11.81 A 3.994 3.994 0 0 0 2.332 12.814 A 3.54 3.54 0 0 0 2.94 13.33 A 3.259 3.259 0 0 0 4.656 13.877 A 3.981 3.981 0 0 0 4.82 13.88 Z" id="0" vector-effect="non-scaling-stroke"/><path d="M 13.56 12.24 L 13.92 11.98 L 13.92 14.24 A 0.651 0.651 0 0 1 13.885 14.457 A 0.561 0.561 0 0 1 13.75 14.67 A 0.574 0.574 0 0 1 13.361 14.839 A 0.764 0.764 0 0 1 13.32 14.84 A 0.651 0.651 0 0 1 13.103 14.805 A 0.561 0.561 0 0 1 12.89 14.67 A 0.574 0.574 0 0 1 12.721 14.281 A 0.764 0.764 0 0 1 12.72 14.24 L 12.72 0.62 Q 12.72 0.36 12.88 0.19 Q 13.04 0.02 13.32 0.02 A 0.651 0.651 0 0 1 13.537 0.055 A 0.561 0.561 0 0 1 13.75 0.19 A 0.574 0.574 0 0 1 13.919 0.579 A 0.764 0.764 0 0 1 13.92 0.62 L 13.92 7.32 L 13.64 7.16 Q 13.84 6.54 14.23 6.03 Q 14.62 5.52 15.14 5.14 Q 15.66 4.76 16.28 4.55 Q 16.9 4.34 17.58 4.34 A 4.622 4.622 0 0 1 19.049 4.567 A 4.117 4.117 0 0 1 19.99 5.02 Q 21.04 5.7 21.66 6.89 A 5.44 5.44 0 0 1 22.213 8.656 A 7.024 7.024 0 0 1 22.28 9.64 A 6.409 6.409 0 0 1 22.067 11.318 A 5.509 5.509 0 0 1 21.66 12.38 A 5.134 5.134 0 0 1 20.671 13.744 A 4.686 4.686 0 0 1 19.98 14.3 Q 18.92 15 17.6 15 Q 16.9 15 16.27 14.78 Q 15.64 14.56 15.12 14.19 Q 14.6 13.82 14.2 13.32 Q 13.8 12.82 13.56 12.24 Z M 17.48 5.46 A 3.656 3.656 0 0 0 16.378 5.621 A 3.175 3.175 0 0 0 15.58 6 A 3.686 3.686 0 0 0 14.366 7.336 A 4.393 4.393 0 0 0 14.29 7.48 A 4.41 4.41 0 0 0 13.876 8.834 A 5.659 5.659 0 0 0 13.82 9.64 A 5.281 5.281 0 0 0 13.984 10.976 A 4.523 4.523 0 0 0 14.29 11.81 A 3.994 3.994 0 0 0 14.972 12.814 A 3.54 3.54 0 0 0 15.58 13.33 A 3.254 3.254 0 0 0 17.182 13.869 A 4.039 4.039 0 0 0 17.48 13.88 A 3.402 3.402 0 0 0 18.622 13.693 A 3.082 3.082 0 0 0 19.35 13.32 A 3.832 3.832 0 0 0 20.465 12.111 A 4.663 4.663 0 0 0 20.64 11.79 A 4.673 4.673 0 0 0 21.108 10.004 A 5.573 5.573 0 0 0 21.12 9.64 Q 21.12 8.42 20.64 7.48 A 4.031 4.031 0 0 0 19.911 6.461 A 3.627 3.627 0 0 0 19.35 6 A 3.228 3.228 0 0 0 17.741 5.468 A 3.987 3.987 0 0 0 17.48 5.46 Z" id="1" vector-effect="non-scaling-stroke"/><path d="M 30.369 4.406 A 7.652 7.652 0 0 0 29.34 4.34 A 5.897 5.897 0 0 0 28.738 4.37 A 4.695 4.695 0 0 0 26.67 5.07 Q 25.52 5.8 24.88 7 Q 24.24 8.2 24.24 9.66 A 6.88 6.88 0 0 0 24.27 10.31 A 5.604 5.604 0 0 0 24.87 12.39 Q 25.5 13.6 26.63 14.3 A 4.505 4.505 0 0 0 27.817 14.815 A 5.434 5.434 0 0 0 29.26 15 A 6.663 6.663 0 0 0 30.171 14.94 A 4.918 4.918 0 0 0 31.14 14.71 A 6.392 6.392 0 0 0 31.488 14.576 Q 31.763 14.46 31.99 14.33 A 3.069 3.069 0 0 0 32.43 14.03 Q 32.9 13.64 32.9 13.32 Q 32.9 13.08 32.77 12.93 Q 32.681 12.827 32.53 12.795 A 0.717 0.717 0 0 0 32.38 12.78 Q 32.1 12.78 31.93 12.99 A 0.949 0.949 0 0 1 31.922 13 Q 31.806 13.139 31.597 13.284 A 3.253 3.253 0 0 1 31.38 13.42 Q 31.06 13.6 30.62 13.74 A 1.888 1.888 0 0 1 30.554 13.76 Q 30.121 13.88 29.38 13.88 A 4.618 4.618 0 0 1 28.8 13.845 A 3.611 3.611 0 0 1 27.32 13.33 Q 26.44 12.78 25.94 11.82 Q 25.44 10.86 25.44 9.66 A 5.147 5.147 0 0 1 25.45 9.333 A 4.271 4.271 0 0 1 25.96 7.53 Q 26.48 6.58 27.38 6.02 A 3.676 3.676 0 0 1 27.905 5.749 A 3.837 3.837 0 0 1 29.4 5.46 Q 29.72 5.46 30.002 5.487 A 4.521 4.521 0 0 1 30.5 5.56 A 7.005 7.005 0 0 1 30.591 5.58 Q 30.862 5.64 31.056 5.707 A 2.007 2.007 0 0 1 31.24 5.78 A 2.296 2.296 0 0 1 31.358 5.843 Q 31.554 5.956 31.67 6.08 Q 31.82 6.24 31.97 6.36 A 0.492 0.492 0 0 0 31.988 6.374 Q 32.134 6.48 32.36 6.48 A 0.591 0.591 0 0 0 32.379 6.48 Q 32.491 6.476 32.581 6.43 A 0.463 0.463 0 0 0 32.74 6.29 A 0.815 0.815 0 0 0 32.814 6.17 A 0.6 0.6 0 0 0 32.88 5.9 A 0.727 0.727 0 0 0 32.804 5.577 Q 32.686 5.338 32.39 5.12 Q 32.084 4.895 31.657 4.729 A 5.11 5.11 0 0 0 31.1 4.55 A 6.118 6.118 0 0 0 30.369 4.406 Z" id="2" vector-effect="non-scaling-stroke"/><path d="M 44.18 0.6 L 44.18 14.2 Q 44.18 14.44 44 14.62 A 0.627 0.627 0 0 1 43.815 14.751 A 0.564 0.564 0 0 1 43.58 14.8 A 0.615 0.615 0 0 1 43.356 14.76 A 0.559 0.559 0 0 1 43.15 14.62 Q 42.98 14.44 42.98 14.2 L 42.98 11.82 L 43.32 11.54 A 2.345 2.345 0 0 1 43.22 12.204 A 3.191 3.191 0 0 1 43.02 12.71 Q 42.72 13.32 42.17 13.84 Q 41.62 14.36 40.89 14.68 A 3.864 3.864 0 0 1 39.333 15 A 4.388 4.388 0 0 1 39.32 15 Q 37.98 15 36.91 14.3 A 4.901 4.901 0 0 1 35.259 12.475 A 5.749 5.749 0 0 1 35.22 12.4 A 5.552 5.552 0 0 1 34.65 10.505 A 6.996 6.996 0 0 1 34.6 9.66 A 6.404 6.404 0 0 1 34.796 8.048 A 5.432 5.432 0 0 1 35.22 6.93 A 5.058 5.058 0 0 1 36.223 5.566 A 4.641 4.641 0 0 1 36.9 5.03 A 4.285 4.285 0 0 1 39.217 4.341 A 5.153 5.153 0 0 1 39.3 4.34 Q 40.12 4.34 40.86 4.64 Q 41.6 4.94 42.17 5.46 Q 42.74 5.98 43.07 6.65 Q 43.4 7.32 43.4 8.04 L 42.98 7.74 L 42.98 0.6 Q 42.98 0.36 43.15 0.18 A 0.563 0.563 0 0 1 43.56 0 A 0.736 0.736 0 0 1 43.58 0 A 0.651 0.651 0 0 1 43.797 0.035 A 0.561 0.561 0 0 1 44.01 0.17 A 0.574 0.574 0 0 1 44.179 0.559 A 0.764 0.764 0 0 1 44.18 0.6 Z M 39.42 13.88 A 3.579 3.579 0 0 0 40.491 13.725 A 3.085 3.085 0 0 0 41.31 13.33 A 3.747 3.747 0 0 0 42.467 12.061 A 4.498 4.498 0 0 0 42.59 11.83 A 4.515 4.515 0 0 0 43.014 10.396 A 5.737 5.737 0 0 0 43.06 9.66 A 5.254 5.254 0 0 0 42.92 8.422 A 4.361 4.361 0 0 0 42.59 7.51 A 3.94 3.94 0 0 0 41.823 6.435 A 3.623 3.623 0 0 0 41.3 6.01 A 3.259 3.259 0 0 0 39.584 5.463 A 3.981 3.981 0 0 0 39.42 5.46 Q 38.38 5.46 37.55 6.01 A 3.726 3.726 0 0 0 36.31 7.393 A 4.417 4.417 0 0 0 36.25 7.51 A 4.531 4.531 0 0 0 35.817 9.005 A 5.636 5.636 0 0 0 35.78 9.66 A 5.273 5.273 0 0 0 35.929 10.934 A 4.443 4.443 0 0 0 36.25 11.82 A 3.896 3.896 0 0 0 37.021 12.902 A 3.585 3.585 0 0 0 37.55 13.33 Q 38.38 13.88 39.42 13.88 Z" id="3" vector-effect="non-scaling-stroke"/><path d="M 55.44 9.68 L 47.42 9.68 L 47.18 8.6 L 55.06 8.6 L 54.8 8.84 L 54.8 8.44 A 3.245 3.245 0 0 0 54.605 7.558 A 2.707 2.707 0 0 0 54.2 6.84 Q 53.68 6.18 52.94 5.84 Q 52.2 5.5 51.4 5.5 A 3.274 3.274 0 0 0 50.522 5.624 A 3.975 3.975 0 0 0 50.17 5.74 A 3.194 3.194 0 0 0 49.127 6.397 A 3.697 3.697 0 0 0 49.03 6.49 A 3.505 3.505 0 0 0 48.473 7.226 A 4.572 4.572 0 0 0 48.2 7.79 Q 47.88 8.58 47.88 9.66 A 5.008 5.008 0 0 0 48.063 11.033 A 4.392 4.392 0 0 0 48.36 11.8 Q 48.84 12.76 49.75 13.32 A 3.721 3.721 0 0 0 51.095 13.814 A 4.95 4.95 0 0 0 51.92 13.88 A 4.214 4.214 0 0 0 52.615 13.825 A 3.29 3.29 0 0 0 53.18 13.68 Q 53.74 13.48 54.16 13.15 A 4.505 4.505 0 0 0 54.583 12.775 A 3.552 3.552 0 0 0 54.86 12.46 Q 55.08 12.28 55.3 12.28 A 0.455 0.455 0 0 1 55.617 12.407 A 0.621 0.621 0 0 1 55.65 12.44 A 0.578 0.578 0 0 1 55.755 12.593 A 0.488 0.488 0 0 1 55.8 12.8 A 0.53 0.53 0 0 1 55.658 13.162 A 0.741 0.741 0 0 1 55.6 13.22 A 4.932 4.932 0 0 1 54.709 14.046 A 6.326 6.326 0 0 1 54.04 14.47 Q 53.08 15 51.94 15 A 6.108 6.108 0 0 1 50.448 14.825 A 4.997 4.997 0 0 1 49.22 14.34 Q 48.04 13.68 47.38 12.5 A 5.125 5.125 0 0 1 46.798 10.779 A 6.683 6.683 0 0 1 46.72 9.74 Q 46.72 8.04 47.39 6.84 A 5.241 5.241 0 0 1 48.32 5.616 A 4.598 4.598 0 0 1 49.13 4.99 Q 50.2 4.34 51.4 4.34 Q 52.28 4.34 53.11 4.65 Q 53.94 4.96 54.59 5.57 A 4.461 4.461 0 0 1 55.529 6.844 A 5.197 5.197 0 0 1 55.63 7.06 Q 56.02 7.94 56.06 9.1 Q 56.04 9.34 55.86 9.51 Q 55.68 9.68 55.44 9.68 Z" id="4" vector-effect="non-scaling-stroke"/><path d="M 60.84 2.72 L 60.84 14.2 Q 60.84 14.44 60.67 14.62 A 0.563 0.563 0 0 1 60.26 14.8 A 0.736 0.736 0 0 1 60.24 14.8 A 0.615 0.615 0 0 1 60.016 14.76 A 0.559 0.559 0 0 1 59.81 14.62 Q 59.64 14.44 59.64 14.2 L 59.64 2.72 A 3.499 3.499 0 0 1 59.721 1.945 Q 59.886 1.217 60.39 0.76 A 2.585 2.585 0 0 1 61.74 0.125 A 3.581 3.581 0 0 1 62.32 0.08 A 3.457 3.457 0 0 1 62.673 0.099 A 4.456 4.456 0 0 1 62.97 0.14 A 2.081 2.081 0 0 1 63.307 0.226 A 1.611 1.611 0 0 1 63.58 0.35 A 0.544 0.544 0 0 1 63.74 0.485 Q 63.84 0.614 63.84 0.8 A 0.55 0.55 0 0 1 63.691 1.179 A 0.713 0.713 0 0 1 63.68 1.19 A 0.604 0.604 0 0 1 63.554 1.294 A 0.444 0.444 0 0 1 63.32 1.36 A 0.942 0.942 0 0 1 63.171 1.347 Q 63.017 1.322 62.82 1.25 A 1.832 1.832 0 0 0 62.222 1.14 A 2.08 2.08 0 0 0 62.18 1.14 A 1.552 1.552 0 0 0 61.826 1.179 A 1.181 1.181 0 0 0 61.46 1.33 A 1.202 1.202 0 0 0 61.037 1.795 A 1.474 1.474 0 0 0 61 1.87 A 1.669 1.669 0 0 0 60.881 2.251 Q 60.84 2.466 60.84 2.72 Z M 58.18 4.78 L 63.08 4.78 A 0.591 0.591 0 0 1 63.291 4.816 A 0.531 0.531 0 0 1 63.48 4.94 Q 63.64 5.1 63.64 5.34 A 0.591 0.591 0 0 1 63.604 5.551 A 0.531 0.531 0 0 1 63.48 5.74 Q 63.32 5.9 63.08 5.9 L 58.18 5.9 Q 57.96 5.9 57.79 5.73 A 0.608 0.608 0 0 1 57.674 5.572 A 0.512 0.512 0 0 1 57.62 5.34 Q 57.62 5.08 57.79 4.93 Q 57.96 4.78 58.18 4.78 Z" id="5" vector-effect="non-scaling-stroke"/><path d="M 74.28 7.54 L 73.94 7.06 L 73.94 5.2 Q 73.94 4.94 74.11 4.76 A 0.563 0.563 0 0 1 74.52 4.58 A 0.736 0.736 0 0 1 74.54 4.58 A 0.701 0.701 0 0 1 74.73 4.604 A 0.513 0.513 0 0 1 74.98 4.76 A 0.63 0.63 0 0 1 75.139 5.159 A 0.815 0.815 0 0 1 75.14 5.2 L 75.14 13.86 Q 75.14 15.386 74.54 16.457 A 4.02 4.02 0 0 1 74.48 16.56 Q 73.82 17.66 72.69 18.23 A 5.319 5.319 0 0 1 70.906 18.755 A 6.672 6.672 0 0 1 70.12 18.8 A 6.091 6.091 0 0 1 69.136 18.717 A 7.353 7.353 0 0 1 68.65 18.62 Q 67.961 18.459 67.449 18.218 A 4.192 4.192 0 0 1 67.33 18.16 Q 66.914 17.948 66.779 17.725 A 0.448 0.448 0 0 1 66.72 17.58 Q 66.56 17.4 66.57 17.23 Q 66.58 17.06 66.74 16.94 A 0.46 0.46 0 0 1 66.843 16.885 Q 66.965 16.84 67.094 16.882 A 0.503 0.503 0 0 1 67.16 16.91 Q 67.38 17.02 67.82 17.2 A 6.551 6.551 0 0 1 67.929 17.234 Q 68.105 17.29 68.36 17.38 A 4.438 4.438 0 0 0 68.682 17.479 Q 68.85 17.524 69.04 17.564 A 8.047 8.047 0 0 0 69.17 17.59 A 5.134 5.134 0 0 0 69.967 17.677 A 5.851 5.851 0 0 0 70.16 17.68 Q 71.96 17.68 72.95 16.65 A 3.484 3.484 0 0 0 73.87 14.787 A 4.923 4.923 0 0 0 73.94 13.94 L 73.94 12.02 L 74.16 12.08 A 3.607 3.607 0 0 1 73.825 12.948 A 3.189 3.189 0 0 1 73.57 13.34 Q 73.16 13.88 72.6 14.25 Q 72.04 14.62 71.39 14.81 Q 70.74 15 70.1 15 A 4.655 4.655 0 0 1 68.335 14.669 A 4.425 4.425 0 0 1 67.62 14.3 Q 66.52 13.6 65.87 12.4 Q 65.22 11.2 65.22 9.66 A 6.104 6.104 0 0 1 65.437 8.006 A 5.274 5.274 0 0 1 65.87 6.93 A 5.139 5.139 0 0 1 67.017 5.472 A 4.828 4.828 0 0 1 67.61 5.03 A 4.479 4.479 0 0 1 69.898 4.343 A 5.408 5.408 0 0 1 70.08 4.34 A 4.577 4.577 0 0 1 71.201 4.474 A 4.03 4.03 0 0 1 71.74 4.65 A 4.996 4.996 0 0 1 72.725 5.182 A 4.427 4.427 0 0 1 73.07 5.45 A 4.668 4.668 0 0 1 73.591 5.971 A 3.624 3.624 0 0 1 73.96 6.49 A 2.668 2.668 0 0 1 74.166 6.925 Q 74.262 7.192 74.277 7.446 A 1.587 1.587 0 0 1 74.28 7.54 Z M 70.22 5.46 A 3.761 3.761 0 0 0 68.905 5.686 A 3.486 3.486 0 0 0 68.25 6.01 Q 67.38 6.56 66.89 7.51 A 4.414 4.414 0 0 0 66.431 9.076 A 5.456 5.456 0 0 0 66.4 9.66 A 5.051 5.051 0 0 0 66.564 10.967 A 4.321 4.321 0 0 0 66.89 11.82 Q 67.38 12.78 68.25 13.33 A 3.578 3.578 0 0 0 70.084 13.878 A 4.316 4.316 0 0 0 70.22 13.88 A 3.824 3.824 0 0 0 71.442 13.69 A 3.435 3.435 0 0 0 72.18 13.34 A 3.805 3.805 0 0 0 73.509 11.909 A 4.485 4.485 0 0 0 73.54 11.85 A 4.323 4.323 0 0 0 73.991 10.407 A 5.541 5.541 0 0 0 74.04 9.66 Q 74.04 8.42 73.54 7.47 A 3.855 3.855 0 0 0 72.659 6.342 A 3.637 3.637 0 0 0 72.18 5.99 A 3.587 3.587 0 0 0 70.5 5.469 A 4.384 4.384 0 0 0 70.22 5.46 Z" id="6" vector-effect="non-scaling-stroke"/><path d="M 86.52 8.54 L 86.52 14.2 Q 86.52 14.44 86.34 14.62 A 0.627 0.627 0 0 1 86.155 14.751 A 0.564 0.564 0 0 1 85.92 14.8 A 0.701 0.701 0 0 1 85.731 14.776 A 0.513 0.513 0 0 1 85.48 14.62 Q 85.32 14.44 85.32 14.2 L 85.32 8.54 A 4.642 4.642 0 0 0 85.25 7.714 A 3.699 3.699 0 0 0 85.07 7.06 Q 84.82 6.4 84.26 6.01 A 2.008 2.008 0 0 0 83.64 5.727 Q 83.252 5.62 82.76 5.62 Q 81.92 5.62 81.17 6.01 Q 80.42 6.4 79.96 7.06 Q 79.5 7.72 79.5 8.54 L 79.5 14.2 Q 79.5 14.44 79.32 14.62 A 0.627 0.627 0 0 1 79.135 14.751 A 0.564 0.564 0 0 1 78.9 14.8 A 0.701 0.701 0 0 1 78.711 14.776 A 0.513 0.513 0 0 1 78.46 14.62 Q 78.3 14.44 78.3 14.2 L 78.3 0.6 Q 78.3 0.36 78.47 0.18 A 0.563 0.563 0 0 1 78.88 0 A 0.736 0.736 0 0 1 78.9 0 A 0.615 0.615 0 0 1 79.124 0.04 A 0.559 0.559 0 0 1 79.33 0.18 Q 79.5 0.36 79.5 0.6 L 79.5 7.08 L 79.04 7.78 A 2.608 2.608 0 0 1 79.305 6.802 A 3.162 3.162 0 0 1 79.43 6.57 Q 79.78 5.98 80.34 5.51 Q 80.9 5.04 81.58 4.77 Q 82.26 4.5 82.96 4.5 A 4.806 4.806 0 0 1 83.804 4.57 Q 84.283 4.655 84.669 4.845 A 2.605 2.605 0 0 1 85 5.04 Q 85.78 5.58 86.15 6.5 Q 86.52 7.42 86.52 8.54 Z" id="7" vector-effect="non-scaling-stroke"/><path d="M 90.82 5 L 90.82 14.2 Q 90.82 14.44 90.64 14.62 A 0.627 0.627 0 0 1 90.455 14.751 A 0.564 0.564 0 0 1 90.22 14.8 A 0.615 0.615 0 0 1 89.996 14.76 A 0.559 0.559 0 0 1 89.79 14.62 Q 89.62 14.44 89.62 14.2 L 89.62 5 Q 89.62 4.76 89.79 4.58 A 0.563 0.563 0 0 1 90.2 4.4 A 0.736 0.736 0 0 1 90.22 4.4 A 0.615 0.615 0 0 1 90.444 4.44 A 0.559 0.559 0 0 1 90.65 4.58 Q 90.82 4.76 90.82 5 Z M 89.38 2.32 L 89.38 2.12 A 0.898 0.898 0 0 1 89.407 1.895 A 0.607 0.607 0 0 1 89.61 1.57 A 0.779 0.779 0 0 1 89.897 1.423 Q 90.049 1.38 90.24 1.38 A 1.225 1.225 0 0 1 90.471 1.4 Q 90.606 1.427 90.712 1.486 A 0.642 0.642 0 0 1 90.83 1.57 A 0.612 0.612 0 0 1 91.012 1.879 Q 91.037 1.978 91.04 2.095 A 1.205 1.205 0 0 1 91.04 2.12 L 91.04 2.32 A 0.987 0.987 0 0 1 91.018 2.538 Q 90.984 2.688 90.899 2.796 A 0.585 0.585 0 0 1 90.83 2.87 A 0.674 0.674 0 0 1 90.582 3.01 Q 90.48 3.043 90.356 3.054 A 1.485 1.485 0 0 1 90.22 3.06 Q 89.952 3.06 89.77 2.983 A 0.633 0.633 0 0 1 89.59 2.87 A 0.612 0.612 0 0 1 89.408 2.561 Q 89.383 2.462 89.38 2.345 A 1.205 1.205 0 0 1 89.38 2.32 Z" id="8" vector-effect="non-scaling-stroke"/><path d="M 95.4 5.22 L 95.4 15.72 A 3.406 3.406 0 0 1 95.314 16.505 A 2.556 2.556 0 0 1 94.95 17.35 Q 94.5 18.02 93.84 18.38 A 3.042 3.042 0 0 1 93.149 18.658 A 2.492 2.492 0 0 1 92.52 18.74 Q 92.26 18.74 92.11 18.58 Q 91.96 18.42 91.96 18.2 L 91.96 18.12 A 0.58 0.58 0 0 1 91.984 17.951 A 0.448 0.448 0 0 1 92.12 17.74 Q 92.28 17.6 92.48 17.56 Q 92.94 17.46 93.33 17.22 A 1.81 1.81 0 0 0 93.945 16.586 A 2.117 2.117 0 0 0 93.96 16.56 Q 94.197 16.146 94.2 15.556 A 2.986 2.986 0 0 0 94.2 15.54 L 94.2 5.22 Q 94.2 4.98 94.37 4.8 A 0.563 0.563 0 0 1 94.78 4.62 A 0.736 0.736 0 0 1 94.8 4.62 A 0.615 0.615 0 0 1 95.024 4.66 A 0.559 0.559 0 0 1 95.23 4.8 Q 95.4 4.98 95.4 5.22 Z M 93.96 2.3 L 93.96 2.1 A 0.898 0.898 0 0 1 93.987 1.875 A 0.607 0.607 0 0 1 94.19 1.55 A 0.779 0.779 0 0 1 94.477 1.403 Q 94.629 1.36 94.82 1.36 A 1.225 1.225 0 0 1 95.051 1.38 Q 95.186 1.407 95.292 1.466 A 0.642 0.642 0 0 1 95.41 1.55 A 0.612 0.612 0 0 1 95.592 1.859 Q 95.617 1.958 95.62 2.075 A 1.205 1.205 0 0 1 95.62 2.1 L 95.62 2.3 A 0.987 0.987 0 0 1 95.598 2.518 Q 95.564 2.668 95.479 2.776 A 0.585 0.585 0 0 1 95.41 2.85 A 0.674 0.674 0 0 1 95.162 2.99 Q 95.06 3.023 94.936 3.034 A 1.485 1.485 0 0 1 94.8 3.04 Q 94.532 3.04 94.35 2.963 A 0.633 0.633 0 0 1 94.17 2.85 A 0.612 0.612 0 0 1 93.988 2.541 Q 93.963 2.442 93.96 2.325 A 1.205 1.205 0 0 1 93.96 2.3 Z" id="9" vector-effect="non-scaling-stroke"/><path d="M 99.46 14.2 L 99.46 0.6 Q 99.46 0.36 99.63 0.18 A 0.563 0.563 0 0 1 100.04 0 A 0.736 0.736 0 0 1 100.06 0 A 0.615 0.615 0 0 1 100.284 0.04 A 0.559 0.559 0 0 1 100.49 0.18 Q 100.66 0.36 100.66 0.6 L 100.66 14.2 Q 100.66 14.44 100.49 14.62 A 0.563 0.563 0 0 1 100.08 14.8 A 0.736 0.736 0 0 1 100.06 14.8 A 0.615 0.615 0 0 1 99.836 14.76 A 0.559 0.559 0 0 1 99.63 14.62 Q 99.46 14.44 99.46 14.2 Z M 107.22 5.6 L 100.5 11.32 L 100.44 9.9 L 106.44 4.74 A 0.656 0.656 0 0 1 106.59 4.614 A 0.516 0.516 0 0 1 106.86 4.54 A 0.5 0.5 0 0 1 107.159 4.64 A 0.727 0.727 0 0 1 107.26 4.73 A 0.735 0.735 0 0 1 107.372 4.88 A 0.531 0.531 0 0 1 107.44 5.14 A 0.577 0.577 0 0 1 107.298 5.52 A 0.818 0.818 0 0 1 107.22 5.6 Z M 106.58 14.58 L 102.02 9.74 L 102.92 8.92 L 107.44 13.74 Q 107.62 13.94 107.62 14.2 A 0.57 0.57 0 0 1 107.582 14.411 Q 107.531 14.542 107.408 14.634 A 0.649 0.649 0 0 1 107.4 14.64 A 1.254 1.254 0 0 1 107.281 14.717 Q 107.153 14.79 107.048 14.799 A 0.337 0.337 0 0 1 107.02 14.8 A 0.537 0.537 0 0 1 106.617 14.622 A 0.754 0.754 0 0 1 106.58 14.58 Z" id="10" vector-effect="non-scaling-stroke"/><path d="M 111.26 0.6 L 111.26 14.2 Q 111.26 14.44 111.08 14.62 A 0.627 0.627 0 0 1 110.895 14.751 A 0.564 0.564 0 0 1 110.66 14.8 A 0.615 0.615 0 0 1 110.436 14.76 A 0.559 0.559 0 0 1 110.23 14.62 Q 110.06 14.44 110.06 14.2 L 110.06 0.6 Q 110.06 0.36 110.24 0.18 A 0.627 0.627 0 0 1 110.425 0.049 A 0.564 0.564 0 0 1 110.66 0 A 0.615 0.615 0 0 1 110.884 0.04 A 0.559 0.559 0 0 1 111.09 0.18 Q 111.26 0.36 111.26 0.6 Z" id="11" vector-effect="non-scaling-stroke"/><path d="M 122.46 7.08 L 122.18 7.16 L 122.3 6.8 A 2.786 2.786 0 0 1 122.696 6.156 Q 122.898 5.907 123.168 5.672 A 7.526 7.526 0 0 1 123.17 5.67 Q 123.78 5.14 124.56 4.82 A 4.138 4.138 0 0 1 126.09 4.5 A 3.997 3.997 0 0 1 126.14 4.5 Q 127.109 4.5 127.789 4.82 A 2.562 2.562 0 0 1 128.17 5.04 Q 128.94 5.58 129.29 6.49 A 5.196 5.196 0 0 1 129.591 7.717 A 6.655 6.655 0 0 1 129.64 8.54 L 129.64 14.2 Q 129.64 14.44 129.47 14.62 A 0.563 0.563 0 0 1 129.06 14.8 A 0.736 0.736 0 0 1 129.04 14.8 A 0.615 0.615 0 0 1 128.816 14.76 A 0.559 0.559 0 0 1 128.61 14.62 Q 128.44 14.44 128.44 14.2 L 128.44 8.6 Q 128.44 7.78 128.18 7.1 A 2.376 2.376 0 0 0 127.695 6.313 A 2.258 2.258 0 0 0 127.36 6.02 A 1.991 1.991 0 0 0 126.728 5.726 Q 126.465 5.653 126.153 5.63 A 4.008 4.008 0 0 0 125.86 5.62 Q 125.04 5.62 124.29 6.02 Q 123.54 6.42 123.07 7.1 Q 122.6 7.78 122.6 8.6 L 122.6 14.2 Q 122.6 14.44 122.43 14.62 A 0.563 0.563 0 0 1 122.02 14.8 A 0.736 0.736 0 0 1 122 14.8 A 0.615 0.615 0 0 1 121.776 14.76 A 0.559 0.559 0 0 1 121.57 14.62 Q 121.4 14.44 121.4 14.2 L 121.4 8.54 A 4.831 4.831 0 0 0 121.332 7.714 A 3.82 3.82 0 0 0 121.16 7.06 A 2.242 2.242 0 0 0 120.695 6.288 A 2.149 2.149 0 0 0 120.38 6.01 Q 119.84 5.62 118.92 5.62 Q 118.1 5.62 117.37 6.01 Q 116.64 6.4 116.19 7.06 Q 115.74 7.72 115.74 8.54 L 115.74 14.2 Q 115.74 14.44 115.56 14.62 A 0.627 0.627 0 0 1 115.375 14.751 A 0.564 0.564 0 0 1 115.14 14.8 A 0.701 0.701 0 0 1 114.951 14.776 A 0.513 0.513 0 0 1 114.7 14.62 Q 114.54 14.44 114.54 14.2 L 114.54 5.24 Q 114.54 5 114.71 4.82 A 0.563 0.563 0 0 1 115.12 4.64 A 0.736 0.736 0 0 1 115.14 4.64 A 0.615 0.615 0 0 1 115.364 4.68 A 0.559 0.559 0 0 1 115.57 4.82 Q 115.74 5 115.74 5.24 L 115.74 7.1 L 115.2 7.84 A 2.953 2.953 0 0 1 115.418 6.996 A 3.655 3.655 0 0 1 115.59 6.64 A 4.05 4.05 0 0 1 116.443 5.575 A 4.553 4.553 0 0 1 116.46 5.56 Q 117 5.08 117.69 4.79 Q 118.38 4.5 119.14 4.5 A 3.946 3.946 0 0 1 120.224 4.643 A 3.206 3.206 0 0 1 121.26 5.15 Q 122.14 5.8 122.46 7.08 Z" id="12" vector-effect="non-scaling-stroke"/><path d="M 141.2 8.32 L 141.2 14.2 Q 141.2 14.44 141.02 14.62 A 0.627 0.627 0 0 1 140.835 14.751 A 0.564 0.564 0 0 1 140.6 14.8 A 0.701 0.701 0 0 1 140.411 14.776 A 0.513 0.513 0 0 1 140.16 14.62 Q 140 14.44 140 14.2 L 140 8.38 Q 140 7.58 139.74 6.92 Q 139.48 6.26 138.89 5.86 Q 138.38 5.514 137.592 5.467 A 4.263 4.263 0 0 0 137.34 5.46 Q 136.48 5.46 135.71 5.86 A 3.6 3.6 0 0 0 134.692 6.634 A 3.399 3.399 0 0 0 134.46 6.92 Q 133.98 7.58 133.98 8.38 L 133.98 14.2 Q 133.98 14.44 133.8 14.62 A 0.627 0.627 0 0 1 133.615 14.751 A 0.564 0.564 0 0 1 133.38 14.8 A 0.701 0.701 0 0 1 133.191 14.776 A 0.513 0.513 0 0 1 132.94 14.62 Q 132.78 14.44 132.78 14.2 L 132.78 5.24 Q 132.78 5 132.95 4.82 A 0.563 0.563 0 0 1 133.36 4.64 A 0.736 0.736 0 0 1 133.38 4.64 A 0.615 0.615 0 0 1 133.604 4.68 A 0.559 0.559 0 0 1 133.81 4.82 Q 133.98 5 133.98 5.24 L 133.98 6.92 L 133.52 7.64 A 2.546 2.546 0 0 1 133.838 6.568 A 3.054 3.054 0 0 1 133.93 6.41 Q 134.3 5.82 134.88 5.35 Q 135.46 4.88 136.17 4.61 A 4.007 4.007 0 0 1 137.544 4.34 A 3.837 3.837 0 0 1 137.6 4.34 A 5.352 5.352 0 0 1 138.445 4.403 Q 138.9 4.476 139.27 4.633 A 2.651 2.651 0 0 1 139.71 4.87 Q 140.5 5.4 140.85 6.31 A 5.271 5.271 0 0 1 141.172 7.708 A 6.44 6.44 0 0 1 141.2 8.32 Z" id="13" vector-effect="non-scaling-stroke"/><path d="M 153.634 11.355 A 6.007 6.007 0 0 0 153.86 9.68 Q 153.86 8.14 153.2 6.94 Q 152.54 5.74 151.4 5.04 A 4.599 4.599 0 0 0 150.381 4.574 A 5.198 5.198 0 0 0 148.8 4.34 A 5.739 5.739 0 0 0 148.756 4.34 A 4.836 4.836 0 0 0 146.23 5.04 Q 145.08 5.74 144.41 6.94 Q 143.74 8.14 143.74 9.68 A 6.557 6.557 0 0 0 143.76 10.193 A 5.39 5.39 0 0 0 144.41 12.41 Q 145.08 13.62 146.23 14.31 A 4.785 4.785 0 0 0 146.898 14.644 A 5.023 5.023 0 0 0 148.8 15 A 5.881 5.881 0 0 0 149.249 14.983 A 4.8 4.8 0 0 0 151.4 14.31 Q 152.54 13.62 153.2 12.41 A 5.226 5.226 0 0 0 153.634 11.355 Z M 152.66 9.68 A 5.08 5.08 0 0 0 152.519 8.46 A 4.182 4.182 0 0 0 152.16 7.51 Q 151.66 6.56 150.79 6.01 A 3.574 3.574 0 0 0 149.076 5.469 A 4.38 4.38 0 0 0 148.8 5.46 Q 147.72 5.46 146.84 6.01 Q 145.96 6.56 145.45 7.51 A 4.288 4.288 0 0 0 144.976 9.051 A 5.367 5.367 0 0 0 144.94 9.68 A 4.972 4.972 0 0 0 145.076 10.864 A 4.059 4.059 0 0 0 145.45 11.84 Q 145.96 12.78 146.84 13.33 Q 147.72 13.88 148.8 13.88 A 3.886 3.886 0 0 0 150.012 13.696 A 3.456 3.456 0 0 0 150.79 13.33 Q 151.66 12.78 152.16 11.84 A 4.254 4.254 0 0 0 152.616 10.38 A 5.402 5.402 0 0 0 152.66 9.68 Z" id="14" vector-effect="non-scaling-stroke"/><path d="M 157.26 12.24 L 157.62 11.98 L 157.62 18.2 Q 157.62 18.44 157.45 18.62 A 0.563 0.563 0 0 1 157.04 18.8 A 0.736 0.736 0 0 1 157.02 18.8 A 0.615 0.615 0 0 1 156.796 18.76 A 0.559 0.559 0 0 1 156.59 18.62 Q 156.42 18.44 156.42 18.2 L 156.42 5.16 A 0.701 0.701 0 0 1 156.458 4.927 A 0.615 0.615 0 0 1 156.58 4.72 Q 156.74 4.54 157.02 4.54 A 0.615 0.615 0 0 1 157.244 4.58 A 0.559 0.559 0 0 1 157.45 4.72 Q 157.62 4.9 157.62 5.16 L 157.62 7.32 L 157.34 7.16 Q 157.54 6.54 157.93 6.05 Q 158.32 5.56 158.84 5.21 Q 159.36 4.86 159.98 4.68 Q 160.6 4.5 161.28 4.5 A 4.693 4.693 0 0 1 162.731 4.718 A 4.145 4.145 0 0 1 163.69 5.17 A 4.77 4.77 0 0 1 165.301 6.901 A 5.64 5.64 0 0 1 165.36 7.01 A 5.31 5.31 0 0 1 165.925 8.828 A 6.76 6.76 0 0 1 165.98 9.7 A 6.352 6.352 0 0 1 165.808 11.209 A 5.198 5.198 0 0 1 165.36 12.4 Q 164.74 13.58 163.68 14.26 Q 162.62 14.94 161.3 14.94 Q 160.6 14.94 159.97 14.73 Q 159.34 14.52 158.82 14.16 Q 158.3 13.8 157.9 13.31 Q 157.5 12.82 157.26 12.24 Z M 161.18 5.62 A 3.726 3.726 0 0 0 160.091 5.774 A 3.203 3.203 0 0 0 159.28 6.15 Q 158.46 6.68 157.99 7.59 A 4.173 4.173 0 0 0 157.576 8.905 A 5.437 5.437 0 0 0 157.52 9.7 A 5.088 5.088 0 0 0 157.669 10.952 A 4.286 4.286 0 0 0 157.99 11.82 A 3.818 3.818 0 0 0 158.736 12.856 A 3.489 3.489 0 0 0 159.28 13.29 A 3.313 3.313 0 0 0 160.784 13.801 A 4.126 4.126 0 0 0 161.18 13.82 A 3.596 3.596 0 0 0 162.279 13.657 A 3.151 3.151 0 0 0 163.05 13.29 A 3.672 3.672 0 0 0 164.199 12.076 A 4.45 4.45 0 0 0 164.34 11.82 Q 164.82 10.88 164.82 9.7 A 4.952 4.952 0 0 0 164.685 8.52 A 4.073 4.073 0 0 0 164.34 7.6 A 3.929 3.929 0 0 0 163.546 6.54 A 3.627 3.627 0 0 0 163.05 6.15 A 3.254 3.254 0 0 0 161.505 5.633 A 4.021 4.021 0 0 0 161.18 5.62 Z" id="15" vector-effect="non-scaling-stroke"/><path d="M 177.52 5.16 L 177.52 18.2 Q 177.52 18.44 177.34 18.62 A 0.627 0.627 0 0 1 177.155 18.751 A 0.564 0.564 0 0 1 176.92 18.8 A 0.615 0.615 0 0 1 176.696 18.76 A 0.559 0.559 0 0 1 176.49 18.62 Q 176.32 18.44 176.32 18.2 L 176.32 11.82 L 176.66 11.54 A 2.345 2.345 0 0 1 176.56 12.204 A 3.191 3.191 0 0 1 176.36 12.71 Q 176.06 13.32 175.51 13.84 Q 174.96 14.36 174.23 14.68 A 3.864 3.864 0 0 1 172.673 15 A 4.388 4.388 0 0 1 172.66 15 Q 171.32 15 170.25 14.3 A 4.901 4.901 0 0 1 168.599 12.475 A 5.749 5.749 0 0 1 168.56 12.4 A 5.552 5.552 0 0 1 167.99 10.505 A 6.996 6.996 0 0 1 167.94 9.66 A 6.404 6.404 0 0 1 168.136 8.048 A 5.432 5.432 0 0 1 168.56 6.93 A 5.058 5.058 0 0 1 169.563 5.566 A 4.641 4.641 0 0 1 170.24 5.03 A 4.285 4.285 0 0 1 172.557 4.341 A 5.153 5.153 0 0 1 172.64 4.34 Q 173.46 4.34 174.2 4.64 Q 174.94 4.94 175.51 5.46 Q 176.08 5.98 176.41 6.65 Q 176.74 7.32 176.74 8.04 L 176.32 7.74 L 176.32 5.16 Q 176.32 4.9 176.49 4.72 A 0.563 0.563 0 0 1 176.9 4.54 A 0.736 0.736 0 0 1 176.92 4.54 A 0.615 0.615 0 0 1 177.144 4.58 A 0.559 0.559 0 0 1 177.35 4.72 Q 177.52 4.9 177.52 5.16 Z M 172.76 13.88 A 3.579 3.579 0 0 0 173.831 13.725 A 3.085 3.085 0 0 0 174.65 13.33 A 3.747 3.747 0 0 0 175.807 12.061 A 4.498 4.498 0 0 0 175.93 11.83 A 4.515 4.515 0 0 0 176.354 10.396 A 5.737 5.737 0 0 0 176.4 9.66 A 5.254 5.254 0 0 0 176.26 8.422 A 4.361 4.361 0 0 0 175.93 7.51 A 3.94 3.94 0 0 0 175.163 6.435 A 3.623 3.623 0 0 0 174.64 6.01 A 3.259 3.259 0 0 0 172.924 5.463 A 3.981 3.981 0 0 0 172.76 5.46 Q 171.72 5.46 170.89 6.01 A 3.726 3.726 0 0 0 169.65 7.393 A 4.417 4.417 0 0 0 169.59 7.51 A 4.531 4.531 0 0 0 169.157 9.005 A 5.636 5.636 0 0 0 169.12 9.66 A 5.273 5.273 0 0 0 169.269 10.934 A 4.443 4.443 0 0 0 169.59 11.82 A 3.896 3.896 0 0 0 170.361 12.902 A 3.585 3.585 0 0 0 170.89 13.33 Q 171.72 13.88 172.76 13.88 Z" id="16" vector-effect="non-scaling-stroke"/><path d="M 180.66 14.2 L 180.66 5.24 Q 180.66 5 180.83 4.82 A 0.563 0.563 0 0 1 181.24 4.64 A 0.736 0.736 0 0 1 181.26 4.64 A 0.615 0.615 0 0 1 181.484 4.68 A 0.559 0.559 0 0 1 181.69 4.82 Q 181.86 5 181.86 5.24 L 181.86 8.24 L 181.56 8.3 Q 181.62 7.6 181.91 6.91 Q 182.2 6.22 182.7 5.64 Q 183.2 5.06 183.89 4.7 A 3.196 3.196 0 0 1 185.111 4.354 A 3.887 3.887 0 0 1 185.44 4.34 Q 185.8 4.34 186.14 4.49 A 0.682 0.682 0 0 1 186.312 4.596 Q 186.48 4.741 186.48 4.98 Q 186.48 5.28 186.32 5.44 A 0.542 0.542 0 0 1 186.129 5.567 A 0.527 0.527 0 0 1 185.94 5.6 Q 185.777 5.6 185.589 5.518 A 1.34 1.34 0 0 1 185.55 5.5 A 0.915 0.915 0 0 0 185.358 5.435 Q 185.202 5.4 185 5.4 A 2.037 2.037 0 0 0 184.23 5.556 A 2.65 2.65 0 0 0 183.88 5.73 A 3.699 3.699 0 0 0 183.1 6.35 A 4.44 4.44 0 0 0 182.86 6.62 Q 182.4 7.18 182.13 7.87 A 3.816 3.816 0 0 0 181.863 9.123 A 3.624 3.624 0 0 0 181.86 9.26 L 181.86 14.2 Q 181.86 14.44 181.68 14.62 A 0.627 0.627 0 0 1 181.495 14.751 A 0.564 0.564 0 0 1 181.26 14.8 A 0.701 0.701 0 0 1 181.071 14.776 A 0.513 0.513 0 0 1 180.82 14.62 Q 180.66 14.44 180.66 14.2 Z" id="17" vector-effect="non-scaling-stroke"/><path d="M 187.63 12.71 A 0.623 0.623 0 0 0 187.63 12.737 Q 187.63 12.954 187.78 13.18 A 5.386 5.386 0 0 0 188.25 13.7 A 4.231 4.231 0 0 0 189.57 14.58 Q 190.58 15 191.66 15 A 5.469 5.469 0 0 0 192.208 14.973 A 4.472 4.472 0 0 0 193.48 14.66 A 3.704 3.704 0 0 0 193.752 14.534 A 3.022 3.022 0 0 0 194.79 13.68 A 2.309 2.309 0 0 0 195.15 13.004 A 2.647 2.647 0 0 0 195.28 12.16 A 3.989 3.989 0 0 0 195.275 11.957 Q 195.243 11.332 195.01 10.9 Q 194.74 10.4 194.29 10.07 Q 193.84 9.74 193.25 9.52 Q 192.66 9.3 192.02 9.14 Q 191.26 8.94 190.65 8.7 A 4.198 4.198 0 0 1 190.575 8.67 Q 190.017 8.438 189.67 8.1 A 1.301 1.301 0 0 1 189.358 7.624 A 1.613 1.613 0 0 1 189.26 7.16 Q 189.26 6.54 189.6 6.16 A 2.022 2.022 0 0 1 189.805 5.961 A 2.166 2.166 0 0 1 190.45 5.59 A 2.929 2.929 0 0 1 190.615 5.534 A 3.142 3.142 0 0 1 191.54 5.4 A 4.095 4.095 0 0 1 191.599 5.4 A 3.583 3.583 0 0 1 192.96 5.68 Q 193.62 5.96 194.1 6.5 Q 194.24 6.66 194.45 6.66 Q 194.66 6.66 194.82 6.54 A 0.733 0.733 0 0 0 194.903 6.453 A 0.506 0.506 0 0 0 195.02 6.13 A 0.534 0.534 0 0 0 194.96 5.881 A 0.652 0.652 0 0 0 194.84 5.72 A 3.898 3.898 0 0 0 194.756 5.624 A 3.388 3.388 0 0 0 193.84 4.9 A 4.999 4.999 0 0 0 193.735 4.845 A 4.443 4.443 0 0 0 192.7 4.47 A 5.747 5.747 0 0 0 192.208 4.381 A 4.424 4.424 0 0 0 191.62 4.34 A 5.033 5.033 0 0 0 190.986 4.379 A 3.979 3.979 0 0 0 189.83 4.7 A 3.635 3.635 0 0 0 189.545 4.845 A 2.975 2.975 0 0 0 188.58 5.7 A 2.402 2.402 0 0 0 188.282 6.253 A 2.596 2.596 0 0 0 188.12 7.18 A 2.872 2.872 0 0 0 188.174 7.748 A 2.04 2.04 0 0 0 188.42 8.4 Q 188.72 8.9 189.21 9.25 A 4.142 4.142 0 0 0 189.601 9.497 A 4.958 4.958 0 0 0 190.34 9.83 Q 190.98 10.06 191.66 10.24 A 11.318 11.318 0 0 1 191.898 10.302 A 10.068 10.068 0 0 1 192.87 10.62 A 2.965 2.965 0 0 1 193.241 10.792 A 2.298 2.298 0 0 1 193.8 11.22 A 1.264 1.264 0 0 1 194.107 11.781 A 1.737 1.737 0 0 1 194.16 12.22 A 1.818 1.818 0 0 1 194.147 12.44 A 1.344 1.344 0 0 1 193.8 13.21 Q 193.44 13.6 192.89 13.79 Q 192.34 13.98 191.78 13.98 Q 190.72 13.98 189.95 13.55 Q 189.18 13.12 188.64 12.42 A 0.812 0.812 0 0 0 188.516 12.317 A 0.574 0.574 0 0 0 188.25 12.22 A 0.545 0.545 0 0 0 188.198 12.218 A 0.47 0.47 0 0 0 187.88 12.34 Q 187.64 12.48 187.63 12.71 Z" id="18" vector-effect="non-scaling-stroke"/><path d="M 199.74 2.4 L 199.74 12.44 A 3.365 3.365 0 0 0 199.752 12.733 Q 199.782 13.079 199.89 13.28 A 0.969 0.969 0 0 0 200.014 13.462 A 0.659 0.659 0 0 0 200.28 13.65 A 1.383 1.383 0 0 0 200.67 13.737 A 1.283 1.283 0 0 0 200.76 13.74 A 0.884 0.884 0 0 0 200.929 13.724 A 0.718 0.718 0 0 0 201.05 13.69 A 0.746 0.746 0 0 1 201.234 13.646 A 0.933 0.933 0 0 1 201.34 13.64 A 0.406 0.406 0 0 1 201.638 13.767 A 0.54 0.54 0 0 1 201.65 13.78 A 0.48 0.48 0 0 1 201.773 14.041 A 0.659 0.659 0 0 1 201.78 14.14 A 0.462 0.462 0 0 1 201.649 14.462 Q 201.575 14.542 201.46 14.61 Q 201.14 14.8 200.7 14.8 Q 200.562 14.8 200.319 14.782 A 14.534 14.534 0 0 1 200.16 14.77 A 1.854 1.854 0 0 1 199.705 14.671 A 2.397 2.397 0 0 1 199.42 14.55 Q 199.061 14.37 198.818 13.932 A 2.281 2.281 0 0 1 198.79 13.88 A 1.825 1.825 0 0 1 198.648 13.5 Q 198.547 13.117 198.541 12.575 A 6.291 6.291 0 0 1 198.54 12.5 L 198.54 2.4 Q 198.54 2.16 198.71 1.98 A 0.563 0.563 0 0 1 199.12 1.8 A 0.736 0.736 0 0 1 199.14 1.8 A 0.615 0.615 0 0 1 199.364 1.84 A 0.559 0.559 0 0 1 199.57 1.98 Q 199.74 2.16 199.74 2.4 Z M 197.08 4.62 L 201.74 4.62 A 0.555 0.555 0 0 1 201.965 4.665 A 0.533 0.533 0 0 1 202.14 4.79 Q 202.3 4.96 202.3 5.2 A 0.518 0.518 0 0 1 202.145 5.575 A 0.655 0.655 0 0 1 202.14 5.58 Q 201.98 5.74 201.74 5.74 L 197.08 5.74 Q 196.84 5.74 196.67 5.57 A 0.608 0.608 0 0 1 196.554 5.412 A 0.512 0.512 0 0 1 196.5 5.18 A 0.555 0.555 0 0 1 196.545 4.955 A 0.533 0.533 0 0 1 196.67 4.78 Q 196.84 4.62 197.08 4.62 Z" id="19" vector-effect="non-scaling-stroke"/><path d="M 212.76 5.24 L 212.76 10.88 A 5.583 5.583 0 0 1 212.64 12.077 Q 212.474 12.832 212.08 13.395 A 3.157 3.157 0 0 1 211.64 13.9 A 3.767 3.767 0 0 1 209.898 14.803 Q 209.313 14.94 208.626 14.94 A 7.263 7.263 0 0 1 208.62 14.94 A 5.509 5.509 0 0 1 207.368 14.806 A 3.726 3.726 0 0 1 205.63 13.9 A 3.338 3.338 0 0 1 204.703 12.334 Q 204.554 11.806 204.527 11.176 A 6.693 6.693 0 0 1 204.52 10.88 L 204.52 5.24 Q 204.52 5 204.69 4.82 A 0.563 0.563 0 0 1 205.1 4.64 A 0.736 0.736 0 0 1 205.12 4.64 A 0.615 0.615 0 0 1 205.344 4.68 A 0.559 0.559 0 0 1 205.55 4.82 Q 205.72 5 205.72 5.24 L 205.72 10.88 A 4.298 4.298 0 0 0 205.799 11.732 Q 205.967 12.56 206.49 13.07 A 2.542 2.542 0 0 0 207.665 13.71 Q 208.066 13.811 208.539 13.819 A 4.838 4.838 0 0 0 208.62 13.82 A 4.091 4.091 0 0 0 209.498 13.731 Q 210.268 13.562 210.78 13.07 A 2.396 2.396 0 0 0 211.411 12.008 Q 211.523 11.635 211.551 11.187 A 4.917 4.917 0 0 0 211.56 10.88 L 211.56 5.24 Q 211.56 5 211.72 4.82 Q 211.88 4.64 212.16 4.64 A 0.615 0.615 0 0 1 212.384 4.68 A 0.559 0.559 0 0 1 212.59 4.82 Q 212.76 5 212.76 5.24 Z" id="20" vector-effect="non-scaling-stroke"/><path d="M 216.22 4.76 L 219.72 13.08 L 219.46 13.24 L 223.04 4.76 A 0.714 0.714 0 0 1 223.151 4.567 Q 223.308 4.379 223.581 4.379 A 0.829 0.829 0 0 1 223.62 4.38 A 0.618 0.618 0 0 1 223.938 4.469 A 0.788 0.788 0 0 1 224 4.51 A 0.417 0.417 0 0 1 224.177 4.815 A 0.583 0.583 0 0 1 224.18 4.88 Q 224.18 4.958 224.167 5.015 A 0.312 0.312 0 0 1 224.15 5.07 A 0.967 0.967 0 0 0 224.108 5.19 A 1.094 1.094 0 0 0 224.1 5.22 L 220.18 14.42 A 0.71 0.71 0 0 1 220.048 14.624 Q 219.892 14.787 219.64 14.8 A 0.499 0.499 0 0 1 219.585 14.803 Q 219.434 14.803 219.29 14.71 Q 219.12 14.6 219.04 14.42 L 215.1 5.22 Q 215.083 5.187 215.067 5.125 A 1.245 1.245 0 0 1 215.06 5.1 Q 215.04 5.02 215.04 4.94 A 0.575 0.575 0 0 1 215.165 4.583 A 0.752 0.752 0 0 1 215.2 4.54 A 0.517 0.517 0 0 1 215.474 4.38 A 0.799 0.799 0 0 1 215.66 4.36 A 0.55 0.55 0 0 1 215.87 4.403 A 0.732 0.732 0 0 1 215.98 4.46 A 0.574 0.574 0 0 1 216.177 4.669 A 0.753 0.753 0 0 1 216.22 4.76 Z" id="21" vector-effect="non-scaling-stroke"/><path d="M 239.16 5.22 L 236.08 14.42 Q 236 14.6 235.83 14.71 A 0.603 0.603 0 0 1 235.687 14.779 Q 235.612 14.803 235.535 14.803 A 0.499 0.499 0 0 1 235.48 14.8 A 0.588 0.588 0 0 1 235.024 14.557 A 0.875 0.875 0 0 1 234.94 14.42 L 232.12 7.78 L 232.48 7.86 L 229.98 14.42 A 0.71 0.71 0 0 1 229.848 14.624 Q 229.692 14.787 229.44 14.8 A 0.501 0.501 0 0 1 229.385 14.803 Q 229.282 14.803 229.18 14.761 A 0.707 0.707 0 0 1 229.08 14.71 A 0.603 0.603 0 0 1 228.94 14.594 A 0.502 0.502 0 0 1 228.84 14.42 L 225.68 5.22 Q 225.624 5.09 225.62 4.977 A 0.489 0.489 0 0 1 225.62 4.96 A 0.651 0.651 0 0 1 225.655 4.743 A 0.561 0.561 0 0 1 225.79 4.53 A 0.57 0.57 0 0 1 226.111 4.37 A 0.805 0.805 0 0 1 226.24 4.36 Q 226.42 4.36 226.57 4.46 A 0.495 0.495 0 0 1 226.743 4.664 A 0.671 0.671 0 0 1 226.78 4.76 L 229.62 13.28 L 229.24 13.26 L 231.82 6.76 A 0.706 0.706 0 0 1 231.943 6.56 Q 232.105 6.38 232.38 6.38 A 0.665 0.665 0 0 1 232.548 6.4 A 0.517 0.517 0 0 1 232.72 6.48 A 0.629 0.629 0 0 1 232.89 6.665 A 0.805 0.805 0 0 1 232.94 6.76 L 235.68 13.28 L 235.24 13.3 L 238.06 4.76 A 0.622 0.622 0 0 1 238.163 4.554 Q 238.314 4.36 238.62 4.36 Q 238.84 4.36 239.03 4.52 A 0.524 0.524 0 0 1 239.215 4.875 A 0.749 0.749 0 0 1 239.22 4.96 Q 239.22 5.007 239.208 5.065 A 0.846 0.846 0 0 1 239.2 5.1 Q 239.183 5.169 239.165 5.209 A 0.262 0.262 0 0 1 239.16 5.22 Z" id="22" vector-effect="non-scaling-stroke"/><path d="M 241.72 4.74 L 248.8 13.9 A 0.57 0.57 0 0 1 248.908 14.078 A 0.521 0.521 0 0 1 248.94 14.26 Q 248.94 14.5 248.76 14.68 A 0.627 0.627 0 0 1 248.575 14.811 A 0.564 0.564 0 0 1 248.34 14.86 Q 248.06 14.86 247.84 14.6 L 240.74 5.44 A 0.489 0.489 0 0 1 240.632 5.21 A 0.686 0.686 0 0 1 240.62 5.08 Q 240.62 4.82 240.81 4.65 A 0.674 0.674 0 0 1 241.019 4.52 A 0.614 0.614 0 0 1 241.24 4.48 A 0.544 0.544 0 0 1 241.661 4.665 A 0.731 0.731 0 0 1 241.72 4.74 Z M 248.76 5.38 L 245.38 9.82 L 244.76 8.86 L 247.84 4.74 A 0.865 0.865 0 0 1 247.997 4.593 A 0.579 0.579 0 0 1 248.34 4.48 A 0.726 0.726 0 0 1 248.513 4.499 A 0.494 0.494 0 0 1 248.75 4.63 A 0.502 0.502 0 0 1 248.9 4.993 A 0.644 0.644 0 0 1 248.9 5 Q 248.9 5.1 248.87 5.2 A 0.418 0.418 0 0 1 248.779 5.36 A 0.5 0.5 0 0 1 248.76 5.38 Z M 240.8 13.94 L 244.18 9.6 L 244.84 10.56 L 241.72 14.62 A 0.603 0.603 0 0 1 241.529 14.79 Q 241.41 14.856 241.26 14.86 A 0.735 0.735 0 0 1 241.24 14.86 A 0.6 0.6 0 0 1 240.97 14.794 A 0.815 0.815 0 0 1 240.85 14.72 A 0.452 0.452 0 0 1 240.664 14.391 A 0.648 0.648 0 0 1 240.66 14.32 Q 240.66 14.1 240.8 13.94 Z" id="23" vector-effect="non-scaling-stroke"/><path d="M 259.42 5 L 259.42 13.82 Q 259.42 15.316 258.874 16.377 A 4.106 4.106 0 0 1 258.78 16.55 Q 258.14 17.66 257.06 18.23 Q 255.98 18.8 254.6 18.8 A 6.837 6.837 0 0 1 253.625 18.733 A 5.622 5.622 0 0 1 253.01 18.61 Q 252.28 18.42 251.82 18.12 A 1.158 1.158 0 0 1 251.624 17.978 A 0.877 0.877 0 0 1 251.46 17.78 Q 251.357 17.609 251.416 17.422 A 0.555 0.555 0 0 1 251.44 17.36 A 0.842 0.842 0 0 1 251.517 17.198 Q 251.608 17.051 251.75 16.99 A 0.514 0.514 0 0 1 251.916 16.949 Q 252.046 16.939 252.18 17 A 5.622 5.622 0 0 0 252.369 17.095 Q 252.583 17.198 252.877 17.323 A 20.926 20.926 0 0 0 253.16 17.44 A 3.471 3.471 0 0 0 253.984 17.657 A 4.545 4.545 0 0 0 254.62 17.7 Q 255.72 17.7 256.53 17.24 Q 257.34 16.78 257.78 15.91 A 3.961 3.961 0 0 0 258.136 14.827 A 5.5 5.5 0 0 0 258.22 13.84 L 258.22 12.4 L 258.36 12.88 A 3.431 3.431 0 0 1 257.548 13.946 A 3.922 3.922 0 0 1 257.51 13.98 Q 256.96 14.46 256.25 14.73 Q 255.54 15 254.74 15 A 4.872 4.872 0 0 1 253.898 14.931 Q 253.407 14.845 253.007 14.651 A 2.809 2.809 0 0 1 252.75 14.51 Q 251.96 14.02 251.58 13.16 Q 251.2 12.3 251.2 11.14 L 251.2 5 Q 251.2 4.76 251.36 4.58 Q 251.52 4.4 251.8 4.4 A 0.615 0.615 0 0 1 252.024 4.44 A 0.559 0.559 0 0 1 252.23 4.58 Q 252.4 4.76 252.4 5 L 252.4 10.96 A 5.161 5.161 0 0 0 252.463 11.791 Q 252.533 12.223 252.683 12.571 A 2.373 2.373 0 0 0 253.01 13.12 A 1.872 1.872 0 0 0 253.876 13.713 Q 254.189 13.823 254.575 13.86 A 4.38 4.38 0 0 0 255 13.88 Q 255.86 13.88 256.58 13.47 Q 257.3 13.06 257.76 12.39 A 2.605 2.605 0 0 0 258.149 11.543 A 2.401 2.401 0 0 0 258.22 10.96 L 258.22 5 Q 258.22 4.76 258.39 4.58 A 0.563 0.563 0 0 1 258.8 4.4 A 0.736 0.736 0 0 1 258.82 4.4 A 0.615 0.615 0 0 1 259.044 4.44 A 0.559 0.559 0 0 1 259.25 4.58 Q 259.42 4.76 259.42 5 Z" id="24" vector-effect="non-scaling-stroke"/><path d="M 263.24 13.68 L 268.96 13.68 Q 269.2 13.68 269.37 13.85 A 0.608 0.608 0 0 1 269.486 14.008 A 0.512 0.512 0 0 1 269.54 14.24 A 0.555 0.555 0 0 1 269.496 14.465 A 0.533 0.533 0 0 1 269.37 14.64 Q 269.2 14.8 268.96 14.8 L 262.46 14.8 A 0.546 0.546 0 0 1 262.242 14.758 A 0.521 0.521 0 0 1 262.04 14.6 A 0.94 0.94 0 0 1 261.954 14.474 Q 261.88 14.342 261.88 14.22 A 0.668 0.668 0 0 1 261.92 13.99 A 0.622 0.622 0 0 1 261.969 13.888 Q 262.005 13.826 262.06 13.76 L 268.12 5.38 L 268.2 5.56 L 262.96 5.56 Q 262.72 5.56 262.55 5.39 A 0.608 0.608 0 0 1 262.434 5.232 A 0.512 0.512 0 0 1 262.38 5 A 0.555 0.555 0 0 1 262.425 4.775 A 0.533 0.533 0 0 1 262.55 4.6 Q 262.72 4.44 262.96 4.44 L 269.1 4.44 A 0.503 0.503 0 0 1 269.433 4.566 A 0.699 0.699 0 0 1 269.49 4.62 Q 269.66 4.8 269.66 5.04 A 0.627 0.627 0 0 1 269.645 5.181 A 0.536 0.536 0 0 1 269.62 5.26 A 0.955 0.955 0 0 1 269.578 5.351 Q 269.553 5.397 269.522 5.447 A 1.77 1.77 0 0 1 269.5 5.48 L 263.48 13.78 L 263.24 13.68 Z" id="25" vector-effect="non-scaling-stroke"/></g></svg>