<svg width="336.907" height="17.68" viewBox="0 0 336.907 17.68" xmlns="http://www.w3.org/2000/svg"><g id="svgGroup" stroke-linecap="round" fill-rule="evenodd" font-size="9pt" stroke="#000" stroke-width="0" fill="#000" style="stroke:#000;stroke-width:0;fill:#000"><path d="M 5.627 1.66 L 5.987 1.74 L 1.127 13.82 A 0.826 0.826 0 0 1 1.053 13.965 Q 0.996 14.051 0.922 14.109 A 0.512 0.512 0 0 1 0.907 14.12 Q 0.767 14.22 0.587 14.22 A 0.83 0.83 0 0 1 0.426 14.206 Q 0.334 14.187 0.264 14.147 A 0.415 0.415 0 0 1 0.167 14.07 A 0.599 0.599 0 0 1 0.011 13.734 A 0.752 0.752 0 0 1 0.007 13.7 Q -0.012 13.607 0.022 13.479 A 0.875 0.875 0 0 1 0.027 13.46 L 5.307 0.54 A 0.956 0.956 0 0 1 5.381 0.404 Q 5.458 0.289 5.557 0.23 A 0.629 0.629 0 0 1 5.798 0.147 A 0.804 0.804 0 0 1 5.907 0.14 Q 6.107 0.14 6.257 0.25 A 0.706 0.706 0 0 1 6.482 0.529 A 0.832 0.832 0 0 1 6.487 0.54 L 11.747 13.4 A 0.756 0.756 0 0 1 11.787 13.636 A 0.703 0.703 0 0 1 11.787 13.64 A 0.695 0.695 0 0 1 11.765 13.817 A 0.479 0.479 0 0 1 11.607 14.07 Q 11.427 14.22 11.187 14.22 Q 10.987 14.22 10.837 14.11 A 0.706 0.706 0 0 1 10.612 13.831 A 0.832 0.832 0 0 1 10.607 13.82 L 5.627 1.66 Z M 9.227 10.16 L 2.287 10.16 L 2.787 8.98 L 8.987 8.98 L 9.227 10.16 Z" id="0" vector-effect="non-scaling-stroke"/><path d="M 14.847 0.2 L 20.147 0.2 A 4.998 4.998 0 0 1 21.215 0.308 Q 21.919 0.462 22.445 0.836 A 2.949 2.949 0 0 1 22.777 1.11 A 2.988 2.988 0 0 1 23.624 2.651 A 4.495 4.495 0 0 1 23.727 3.64 Q 23.727 4.48 23.367 5.24 Q 23.007 6 22.307 6.47 A 2.99 2.99 0 0 1 21.384 6.877 A 4.21 4.21 0 0 1 20.567 7 L 20.487 6.6 Q 21.227 6.6 21.937 6.81 Q 22.647 7.02 23.207 7.48 Q 23.767 7.94 24.107 8.63 A 3.146 3.146 0 0 1 24.367 9.419 Q 24.437 9.775 24.445 10.182 A 5.5 5.5 0 0 1 24.447 10.3 A 5.185 5.185 0 0 1 24.382 11.14 Q 24.296 11.662 24.097 12.09 A 3.468 3.468 0 0 1 23.596 12.878 A 3.003 3.003 0 0 1 23.157 13.3 Q 22.567 13.76 21.807 13.98 Q 21.047 14.2 20.227 14.2 L 14.847 14.2 Q 14.607 14.2 14.427 14.02 A 0.627 0.627 0 0 1 14.296 13.835 A 0.564 0.564 0 0 1 14.247 13.6 L 14.247 0.8 Q 14.247 0.56 14.427 0.38 A 0.627 0.627 0 0 1 14.612 0.249 A 0.564 0.564 0 0 1 14.847 0.2 Z M 20.127 7.58 L 15.427 7.58 L 15.527 7.46 L 15.527 13.2 L 15.407 13.02 L 20.167 13.02 A 4.161 4.161 0 0 0 21.168 12.905 A 3.101 3.101 0 0 0 22.307 12.37 A 2.051 2.051 0 0 0 23.041 11.274 Q 23.143 10.924 23.162 10.5 A 4.424 4.424 0 0 0 23.167 10.3 A 3.883 3.883 0 0 0 23.117 9.66 Q 23.058 9.306 22.928 9.02 A 1.984 1.984 0 0 0 22.747 8.7 Q 22.327 8.1 21.627 7.84 A 4.227 4.227 0 0 0 20.276 7.582 A 4.839 4.839 0 0 0 20.127 7.58 Z M 19.987 1.38 L 15.287 1.38 L 15.527 1.02 L 15.527 6.68 L 15.307 6.38 L 19.987 6.38 A 2.773 2.773 0 0 0 20.941 6.201 A 2.47 2.47 0 0 0 21.737 5.7 A 2.093 2.093 0 0 0 22.311 4.755 Q 22.447 4.309 22.447 3.74 A 3.044 3.044 0 0 0 22.365 3.014 A 2.068 2.068 0 0 0 21.807 2.01 A 2.078 2.078 0 0 0 20.901 1.496 Q 20.573 1.403 20.181 1.385 A 4.174 4.174 0 0 0 19.987 1.38 Z" id="1" vector-effect="non-scaling-stroke"/><path d="M 37.642 1.377 A 0.724 0.724 0 0 0 37.487 1.24 A 6.611 6.611 0 0 0 37.213 1.065 A 7.162 7.162 0 0 0 35.567 0.34 Q 34.507 0.02 33.367 0.02 Q 31.907 0.02 30.627 0.56 Q 29.347 1.1 28.387 2.06 Q 27.427 3.02 26.887 4.33 A 6.882 6.882 0 0 0 26.574 5.282 A 7.869 7.869 0 0 0 26.347 7.2 A 8.835 8.835 0 0 0 26.393 8.112 A 7.166 7.166 0 0 0 26.897 10.14 Q 27.447 11.46 28.427 12.41 Q 29.407 13.36 30.667 13.88 A 6.749 6.749 0 0 0 30.865 13.958 A 7.046 7.046 0 0 0 33.367 14.4 Q 34.127 14.4 34.887 14.23 A 9.658 9.658 0 0 0 34.981 14.208 A 8.797 8.797 0 0 0 36.327 13.78 Q 37.007 13.5 37.507 13.18 A 0.727 0.727 0 0 0 37.52 13.171 A 0.579 0.579 0 0 0 37.777 12.79 Q 37.81 12.622 37.74 12.468 A 0.675 0.675 0 0 0 37.647 12.32 A 0.676 0.676 0 0 0 37.631 12.299 A 0.514 0.514 0 0 0 37.277 12.09 Q 37.047 12.06 36.847 12.18 Q 36.087 12.66 35.217 12.94 A 5.606 5.606 0 0 1 34.887 13.035 A 6.119 6.119 0 0 1 33.367 13.22 Q 32.167 13.22 31.127 12.8 Q 30.087 12.38 29.297 11.58 A 5.397 5.397 0 0 1 29.058 11.322 A 5.715 5.715 0 0 1 28.067 9.67 A 5.996 5.996 0 0 1 27.766 8.651 A 7.283 7.283 0 0 1 27.627 7.2 A 7.617 7.617 0 0 1 27.655 6.534 A 6.306 6.306 0 0 1 28.057 4.78 Q 28.487 3.68 29.267 2.87 Q 30.047 2.06 31.097 1.63 Q 32.147 1.2 33.367 1.2 A 6.883 6.883 0 0 1 33.752 1.211 A 5.905 5.905 0 0 1 35.237 1.48 Q 36.107 1.76 36.867 2.26 A 0.767 0.767 0 0 0 37.214 2.343 A 0.804 0.804 0 0 0 37.287 2.34 Q 37.507 2.32 37.647 2.14 A 0.858 0.858 0 0 0 37.712 2.025 Q 37.797 1.841 37.767 1.65 A 0.555 0.555 0 0 0 37.642 1.377 Z" id="2" vector-effect="non-scaling-stroke"/><path d="M 40.927 0.2 L 46.027 0.2 A 6.625 6.625 0 0 1 47.333 0.323 A 5.039 5.039 0 0 1 48.617 0.76 Q 49.727 1.32 50.447 2.31 A 6.889 6.889 0 0 1 51.46 4.365 A 7.865 7.865 0 0 1 51.517 4.56 A 9.806 9.806 0 0 1 51.867 7.157 A 10.892 10.892 0 0 1 51.867 7.2 A 10.184 10.184 0 0 1 51.645 9.364 A 8.596 8.596 0 0 1 51.237 10.71 A 5.89 5.89 0 0 1 50.13 12.517 A 5.481 5.481 0 0 1 49.317 13.25 A 4.715 4.715 0 0 1 47.534 14.043 Q 46.883 14.19 46.128 14.199 A 8.309 8.309 0 0 1 46.027 14.2 L 40.927 14.2 Q 40.687 14.2 40.507 14.02 A 0.627 0.627 0 0 1 40.376 13.835 A 0.564 0.564 0 0 1 40.327 13.6 L 40.327 0.8 Q 40.327 0.56 40.507 0.38 A 0.627 0.627 0 0 1 40.692 0.249 A 0.564 0.564 0 0 1 40.927 0.2 Z M 41.467 13.02 L 45.827 13.02 A 6.042 6.042 0 0 0 46.963 12.919 Q 47.9 12.74 48.567 12.24 Q 49.607 11.46 50.097 10.13 A 7.968 7.968 0 0 0 50.543 8.126 A 9.719 9.719 0 0 0 50.587 7.2 A 8.98 8.98 0 0 0 50.394 5.321 A 8.213 8.213 0 0 0 50.317 4.99 Q 50.047 3.94 49.477 3.13 Q 48.907 2.32 47.997 1.85 A 4.082 4.082 0 0 0 46.862 1.47 A 5.668 5.668 0 0 0 45.827 1.38 L 41.447 1.38 L 41.587 1.2 L 41.587 13.22 L 41.467 13.02 Z" id="3" vector-effect="non-scaling-stroke"/><path d="M 55.307 0.2 L 62.647 0.2 Q 62.887 0.2 63.067 0.37 A 0.563 0.563 0 0 1 63.246 0.78 A 0.736 0.736 0 0 1 63.247 0.8 A 0.609 0.609 0 0 1 63.215 1.002 A 0.516 0.516 0 0 1 63.067 1.22 Q 62.887 1.38 62.647 1.38 L 55.767 1.38 L 55.967 1.04 L 55.967 6.66 L 55.747 6.4 L 61.747 6.4 Q 61.987 6.4 62.167 6.58 A 0.627 0.627 0 0 1 62.297 6.765 A 0.564 0.564 0 0 1 62.347 7 A 0.609 0.609 0 0 1 62.315 7.202 A 0.516 0.516 0 0 1 62.167 7.42 Q 61.987 7.58 61.747 7.58 L 55.787 7.58 L 55.967 7.38 L 55.967 13.14 L 55.867 13.02 L 62.647 13.02 Q 62.887 13.02 63.067 13.2 A 0.627 0.627 0 0 1 63.197 13.385 A 0.564 0.564 0 0 1 63.247 13.62 A 0.609 0.609 0 0 1 63.215 13.822 A 0.516 0.516 0 0 1 63.067 14.04 Q 62.887 14.2 62.647 14.2 L 55.307 14.2 Q 55.067 14.2 54.887 14.02 A 0.627 0.627 0 0 1 54.756 13.835 A 0.564 0.564 0 0 1 54.707 13.6 L 54.707 0.8 Q 54.707 0.56 54.887 0.38 A 0.627 0.627 0 0 1 55.072 0.249 A 0.564 0.564 0 0 1 55.307 0.2 Z" id="4" vector-effect="non-scaling-stroke"/><path d="M 66.067 13.6 L 66.067 0.8 Q 66.067 0.56 66.247 0.38 A 0.627 0.627 0 0 1 66.432 0.249 A 0.564 0.564 0 0 1 66.667 0.2 L 73.947 0.2 A 0.651 0.651 0 0 1 74.163 0.235 A 0.561 0.561 0 0 1 74.377 0.37 A 0.574 0.574 0 0 1 74.546 0.76 A 0.764 0.764 0 0 1 74.547 0.8 Q 74.547 1.04 74.377 1.21 A 0.574 0.574 0 0 1 73.987 1.379 A 0.764 0.764 0 0 1 73.947 1.38 L 67.207 1.38 L 67.287 1.26 L 67.287 6.58 L 67.187 6.4 L 73.047 6.4 A 0.651 0.651 0 0 1 73.263 6.435 A 0.561 0.561 0 0 1 73.477 6.57 A 0.558 0.558 0 0 1 73.647 6.973 A 0.672 0.672 0 0 1 73.647 6.98 A 0.646 0.646 0 0 1 73.619 7.175 A 0.519 0.519 0 0 1 73.477 7.4 A 0.583 0.583 0 0 1 73.126 7.556 A 0.782 0.782 0 0 1 73.047 7.56 L 67.147 7.56 L 67.287 7.4 L 67.287 13.6 Q 67.287 13.84 67.117 14.02 A 0.563 0.563 0 0 1 66.707 14.2 A 0.736 0.736 0 0 1 66.687 14.2 A 0.708 0.708 0 0 1 66.485 14.173 A 0.551 0.551 0 0 1 66.237 14.02 Q 66.067 13.84 66.067 13.6 Z" id="5" vector-effect="non-scaling-stroke"/><path d="M 86.867 12.24 L 86.767 12.66 L 86.767 8.06 L 87.067 8.34 L 83.607 8.34 A 0.619 0.619 0 0 1 83.339 8.283 A 0.613 0.613 0 0 1 83.167 8.16 A 0.627 0.627 0 0 1 83.036 7.975 A 0.564 0.564 0 0 1 82.987 7.74 A 0.701 0.701 0 0 1 83.011 7.551 A 0.513 0.513 0 0 1 83.167 7.3 A 0.63 0.63 0 0 1 83.566 7.141 A 0.815 0.815 0 0 1 83.607 7.14 L 87.427 7.14 A 0.651 0.651 0 0 1 87.643 7.175 A 0.561 0.561 0 0 1 87.857 7.31 A 0.574 0.574 0 0 1 88.026 7.7 A 0.764 0.764 0 0 1 88.027 7.74 L 88.027 12.56 Q 88.027 12.72 87.947 12.86 A 0.747 0.747 0 0 1 87.745 13.087 A 0.865 0.865 0 0 1 87.727 13.1 Q 86.847 13.7 85.757 14.05 Q 84.667 14.4 83.487 14.4 A 7.732 7.732 0 0 1 81.387 14.121 A 7.015 7.015 0 0 1 80.627 13.86 Q 79.307 13.32 78.337 12.35 Q 77.367 11.38 76.827 10.06 A 7.362 7.362 0 0 1 76.295 7.582 A 8.558 8.558 0 0 1 76.287 7.2 A 7.732 7.732 0 0 1 76.566 5.1 A 7.015 7.015 0 0 1 76.827 4.34 Q 77.367 3.02 78.337 2.05 Q 79.307 1.08 80.627 0.54 A 7.362 7.362 0 0 1 83.105 0.009 A 8.558 8.558 0 0 1 83.487 0 Q 84.547 0 85.537 0.25 A 6.256 6.256 0 0 1 86.772 0.699 A 5.451 5.451 0 0 1 87.307 1 Q 87.447 1.1 87.517 1.23 A 0.569 0.569 0 0 1 87.585 1.452 A 0.552 0.552 0 0 1 87.587 1.5 A 0.708 0.708 0 0 1 87.559 1.702 A 0.551 0.551 0 0 1 87.407 1.95 A 0.722 0.722 0 0 1 87.275 2.05 A 0.487 0.487 0 0 1 87.027 2.12 A 0.598 0.598 0 0 1 86.839 2.091 A 0.551 0.551 0 0 1 86.837 2.09 A 1.303 1.303 0 0 1 86.677 2.025 A 1.206 1.206 0 0 1 86.667 2.02 A 6.566 6.566 0 0 0 85.311 1.455 A 7.322 7.322 0 0 0 85.187 1.42 Q 84.387 1.2 83.487 1.2 A 6.467 6.467 0 0 0 81.684 1.443 A 5.553 5.553 0 0 0 80.427 1.98 Q 79.087 2.76 78.327 4.12 A 6.015 6.015 0 0 0 77.593 6.568 A 7.358 7.358 0 0 0 77.567 7.2 A 6.666 6.666 0 0 0 77.821 9.069 A 5.784 5.784 0 0 0 78.327 10.28 Q 79.087 11.64 80.427 12.42 A 5.771 5.771 0 0 0 82.829 13.17 A 7.13 7.13 0 0 0 83.487 13.2 Q 84.387 13.2 85.297 12.94 Q 86.207 12.68 86.867 12.24 Z" id="6" vector-effect="non-scaling-stroke"/><path d="M 101.747 0.82 L 101.747 13.58 A 0.733 0.733 0 0 1 101.673 13.854 A 0.69 0.69 0 0 1 101.557 14.02 Q 101.387 14.2 101.107 14.2 A 0.619 0.619 0 0 1 100.839 14.143 A 0.613 0.613 0 0 1 100.667 14.02 A 0.597 0.597 0 0 1 100.487 13.588 A 0.745 0.745 0 0 1 100.487 13.58 L 100.487 0.82 A 0.581 0.581 0 0 1 100.664 0.393 A 0.714 0.714 0 0 1 100.677 0.38 Q 100.867 0.2 101.127 0.2 A 0.708 0.708 0 0 1 101.329 0.228 A 0.551 0.551 0 0 1 101.577 0.38 Q 101.747 0.56 101.747 0.82 Z M 92.367 0.82 L 92.367 13.58 Q 92.347 13.84 92.157 14.02 A 0.683 0.683 0 0 1 91.974 14.146 A 0.582 0.582 0 0 1 91.727 14.2 A 0.708 0.708 0 0 1 91.525 14.173 A 0.551 0.551 0 0 1 91.277 14.02 Q 91.107 13.84 91.107 13.58 L 91.107 0.82 A 0.619 0.619 0 0 1 91.164 0.553 A 0.613 0.613 0 0 1 91.287 0.38 A 0.607 0.607 0 0 1 91.678 0.203 A 0.816 0.816 0 0 1 91.747 0.2 A 0.597 0.597 0 0 1 92.135 0.343 A 0.787 0.787 0 0 1 92.177 0.38 A 0.594 0.594 0 0 1 92.335 0.622 A 0.612 0.612 0 0 1 92.367 0.82 Z M 91.567 7.62 L 91.647 6.46 L 101.147 6.46 L 101.127 7.62 L 91.567 7.62 Z" id="7" vector-effect="non-scaling-stroke"/><path d="M 106.767 0.82 L 106.767 13.58 Q 106.747 13.84 106.557 14.02 A 0.683 0.683 0 0 1 106.374 14.146 A 0.582 0.582 0 0 1 106.127 14.2 A 0.708 0.708 0 0 1 105.925 14.173 A 0.551 0.551 0 0 1 105.677 14.02 Q 105.507 13.84 105.507 13.58 L 105.507 0.82 A 0.619 0.619 0 0 1 105.564 0.553 A 0.613 0.613 0 0 1 105.687 0.38 A 0.607 0.607 0 0 1 106.078 0.203 A 0.816 0.816 0 0 1 106.147 0.2 A 0.597 0.597 0 0 1 106.535 0.343 A 0.787 0.787 0 0 1 106.577 0.38 A 0.594 0.594 0 0 1 106.735 0.622 A 0.612 0.612 0 0 1 106.767 0.82 Z" id="8" vector-effect="non-scaling-stroke"/><path d="M 116.927 10.12 L 116.927 0.8 Q 116.927 0.56 117.117 0.38 Q 117.307 0.2 117.567 0.2 A 0.708 0.708 0 0 1 117.769 0.228 A 0.551 0.551 0 0 1 118.017 0.38 Q 118.187 0.56 118.187 0.8 L 118.187 10.12 A 4.689 4.689 0 0 1 118.009 11.43 A 4.042 4.042 0 0 1 117.627 12.33 Q 117.067 13.3 116.087 13.85 Q 115.107 14.4 113.827 14.4 Q 112.567 14.4 111.567 13.7 Q 110.567 13 110.047 11.86 A 1.014 1.014 0 0 1 109.991 11.744 Q 109.967 11.683 109.956 11.628 A 0.453 0.453 0 0 1 109.947 11.54 Q 109.947 11.28 110.147 11.13 A 0.855 0.855 0 0 1 110.3 11.037 Q 110.423 10.98 110.547 10.98 A 0.657 0.657 0 0 1 110.695 10.996 A 0.466 0.466 0 0 1 110.877 11.08 Q 111.007 11.18 111.107 11.32 Q 111.487 12.16 112.207 12.68 Q 112.927 13.2 113.827 13.2 Q 114.747 13.2 115.447 12.81 Q 116.147 12.42 116.537 11.72 A 3.093 3.093 0 0 0 116.905 10.531 A 3.856 3.856 0 0 0 116.927 10.12 Z" id="9" vector-effect="non-scaling-stroke"/><path d="M 121.947 13.58 L 121.947 0.82 A 0.619 0.619 0 0 1 122.004 0.553 A 0.613 0.613 0 0 1 122.127 0.38 A 0.607 0.607 0 0 1 122.518 0.203 A 0.816 0.816 0 0 1 122.587 0.2 A 0.619 0.619 0 0 1 122.854 0.257 A 0.613 0.613 0 0 1 123.027 0.38 A 0.597 0.597 0 0 1 123.207 0.812 A 0.745 0.745 0 0 1 123.207 0.82 L 123.207 13.58 Q 123.187 13.84 123.007 14.02 A 0.597 0.597 0 0 1 122.575 14.2 A 0.745 0.745 0 0 1 122.567 14.2 A 0.708 0.708 0 0 1 122.365 14.173 A 0.551 0.551 0 0 1 122.117 14.02 Q 121.947 13.84 121.947 13.58 Z M 132.127 1.24 L 123.047 9.74 L 122.887 8.38 L 131.287 0.44 Q 131.487 0.24 131.727 0.24 A 0.541 0.541 0 0 1 132.123 0.406 A 0.689 0.689 0 0 1 132.137 0.42 A 0.665 0.665 0 0 1 132.25 0.579 A 0.532 0.532 0 0 1 132.307 0.82 Q 132.307 1.06 132.127 1.24 Z M 131.507 14.06 L 125.827 6.92 L 126.767 5.98 L 132.487 13.22 A 0.795 0.795 0 0 1 132.593 13.43 A 0.675 0.675 0 0 1 132.627 13.64 A 0.703 0.703 0 0 1 132.6 13.839 A 0.508 0.508 0 0 1 132.397 14.12 Q 132.167 14.28 131.947 14.28 A 0.537 0.537 0 0 1 131.544 14.103 A 0.754 0.754 0 0 1 131.507 14.06 Z" id="10" vector-effect="non-scaling-stroke"/><path d="M 136.327 13.02 L 143.187 13.02 Q 143.427 13.02 143.607 13.19 Q 143.787 13.36 143.787 13.6 A 0.615 0.615 0 0 1 143.747 13.824 A 0.559 0.559 0 0 1 143.607 14.03 Q 143.427 14.2 143.187 14.2 L 136.047 14.2 A 0.615 0.615 0 0 1 135.823 14.161 A 0.559 0.559 0 0 1 135.617 14.02 Q 135.447 13.84 135.447 13.6 L 135.447 0.8 Q 135.447 0.56 135.627 0.38 A 0.607 0.607 0 0 1 136.018 0.203 A 0.816 0.816 0 0 1 136.087 0.2 A 0.597 0.597 0 0 1 136.475 0.343 A 0.787 0.787 0 0 1 136.517 0.38 A 0.642 0.642 0 0 1 136.643 0.543 A 0.537 0.537 0 0 1 136.707 0.8 L 136.707 13.36 L 136.327 13.02 Z" id="11" vector-effect="non-scaling-stroke"/><path d="M 147.227 0.46 L 152.747 8.74 L 152.207 8.72 L 157.747 0.46 A 0.776 0.776 0 0 1 157.881 0.316 Q 158.029 0.195 158.213 0.195 A 0.596 0.596 0 0 1 158.287 0.2 Q 158.527 0.2 158.697 0.37 A 0.574 0.574 0 0 1 158.866 0.76 A 0.764 0.764 0 0 1 158.867 0.8 L 158.867 13.6 Q 158.867 13.84 158.687 14.02 A 0.597 0.597 0 0 1 158.255 14.2 A 0.745 0.745 0 0 1 158.247 14.2 A 0.711 0.711 0 0 1 158.023 14.166 A 0.592 0.592 0 0 1 157.787 14.02 A 0.627 0.627 0 0 1 157.656 13.835 A 0.564 0.564 0 0 1 157.607 13.6 L 157.607 2.02 L 157.967 2.06 L 152.907 9.72 Q 152.847 9.84 152.727 9.91 A 0.403 0.403 0 0 1 152.545 9.964 Q 152.498 9.966 152.447 9.96 A 0.436 0.436 0 0 1 152.385 9.965 Q 152.288 9.965 152.196 9.92 A 0.506 0.506 0 0 1 152.177 9.91 Q 152.047 9.84 151.967 9.72 L 146.887 1.98 L 147.267 1.72 L 147.267 13.6 Q 147.267 13.84 147.097 14.02 A 0.563 0.563 0 0 1 146.687 14.2 A 0.736 0.736 0 0 1 146.667 14.2 A 0.609 0.609 0 0 1 146.465 14.168 A 0.516 0.516 0 0 1 146.247 14.02 Q 146.087 13.84 146.087 13.6 L 146.087 0.8 Q 146.087 0.56 146.257 0.38 A 0.563 0.563 0 0 1 146.666 0.2 A 0.736 0.736 0 0 1 146.687 0.2 A 0.723 0.723 0 0 1 146.875 0.226 A 0.911 0.911 0 0 1 146.977 0.26 A 0.554 0.554 0 0 1 147.214 0.443 A 0.666 0.666 0 0 1 147.227 0.46 Z" id="12" vector-effect="non-scaling-stroke"/><path d="M 173.427 0.76 L 173.427 13.56 A 0.762 0.762 0 0 1 173.402 13.759 A 0.546 0.546 0 0 1 173.237 14.03 A 0.674 0.674 0 0 1 173.027 14.16 A 0.614 0.614 0 0 1 172.807 14.2 A 0.668 0.668 0 0 1 172.674 14.186 Q 172.613 14.174 172.549 14.151 A 1 1 0 0 1 172.547 14.15 A 0.553 0.553 0 0 1 172.429 14.092 A 0.435 0.435 0 0 1 172.327 14 L 163.407 1.98 L 163.747 1.8 L 163.747 13.66 A 0.518 0.518 0 0 1 163.592 14.035 A 0.655 0.655 0 0 1 163.587 14.04 Q 163.427 14.2 163.187 14.2 Q 162.927 14.2 162.777 14.04 Q 162.627 13.88 162.627 13.66 L 162.627 0.8 A 0.797 0.797 0 0 1 162.644 0.627 Q 162.67 0.512 162.733 0.427 A 0.458 0.458 0 0 1 162.807 0.35 A 0.65 0.65 0 0 1 163.012 0.232 A 0.595 0.595 0 0 1 163.207 0.2 A 0.668 0.668 0 0 1 163.34 0.214 Q 163.4 0.226 163.465 0.249 A 1 1 0 0 1 163.467 0.25 Q 163.607 0.3 163.687 0.42 L 172.507 12.3 L 172.307 12.66 L 172.307 0.76 A 0.555 0.555 0 0 1 172.351 0.535 A 0.533 0.533 0 0 1 172.477 0.36 A 0.597 0.597 0 0 1 172.659 0.24 A 0.541 0.541 0 0 1 172.867 0.2 Q 173.127 0.2 173.277 0.36 A 0.55 0.55 0 0 1 173.425 0.708 A 0.728 0.728 0 0 1 173.427 0.76 Z" id="13" vector-effect="non-scaling-stroke"/><path d="M 189.494 8.981 A 8.858 8.858 0 0 0 189.667 7.2 A 9.469 9.469 0 0 0 189.623 6.286 A 7.751 7.751 0 0 0 189.177 4.31 A 7.731 7.731 0 0 0 189.146 4.229 A 6.807 6.807 0 0 0 187.787 2.03 Q 186.887 1.06 185.657 0.53 A 6.267 6.267 0 0 0 184.825 0.239 A 7.032 7.032 0 0 0 182.967 0 A 7.748 7.748 0 0 0 182.494 0.014 A 6.572 6.572 0 0 0 180.277 0.53 Q 179.047 1.06 178.147 2.03 A 6.568 6.568 0 0 0 177.982 2.215 A 6.875 6.875 0 0 0 176.757 4.31 A 7.401 7.401 0 0 0 176.439 5.419 A 8.858 8.858 0 0 0 176.267 7.2 A 9.469 9.469 0 0 0 176.31 8.114 A 7.751 7.751 0 0 0 176.757 10.09 A 7.731 7.731 0 0 0 176.788 10.172 A 6.807 6.807 0 0 0 178.147 12.37 Q 179.047 13.34 180.277 13.87 A 6.267 6.267 0 0 0 181.109 14.161 A 7.032 7.032 0 0 0 182.967 14.4 A 7.748 7.748 0 0 0 183.44 14.386 A 6.572 6.572 0 0 0 185.657 13.87 Q 186.887 13.34 187.787 12.37 A 6.568 6.568 0 0 0 187.952 12.185 A 6.875 6.875 0 0 0 189.177 10.09 A 7.401 7.401 0 0 0 189.494 8.981 Z M 188.387 7.2 Q 188.387 5.42 187.697 4.07 A 5.336 5.336 0 0 0 186.364 2.377 A 5.145 5.145 0 0 0 185.787 1.96 A 5.034 5.034 0 0 0 183.601 1.231 A 6.287 6.287 0 0 0 182.967 1.2 A 5.597 5.597 0 0 0 181.257 1.454 A 4.942 4.942 0 0 0 180.157 1.96 Q 178.927 2.72 178.237 4.07 A 6.229 6.229 0 0 0 177.632 6.002 A 8.132 8.132 0 0 0 177.547 7.2 Q 177.547 8.98 178.237 10.33 Q 178.927 11.68 180.157 12.44 A 5.12 5.12 0 0 0 182.529 13.185 A 6.28 6.28 0 0 0 182.967 13.2 Q 184.567 13.2 185.787 12.44 A 5.222 5.222 0 0 0 187.675 10.372 A 6.188 6.188 0 0 0 187.697 10.33 A 6.229 6.229 0 0 0 188.301 8.399 A 8.132 8.132 0 0 0 188.387 7.2 Z" id="14" vector-effect="non-scaling-stroke"/><path d="M 193.107 0.2 L 197.847 0.2 A 4.182 4.182 0 0 1 198.963 0.344 A 3.52 3.52 0 0 1 199.827 0.71 Q 200.687 1.22 201.187 2.12 A 3.976 3.976 0 0 1 201.655 3.616 A 4.969 4.969 0 0 1 201.687 4.18 A 4.633 4.633 0 0 1 201.51 5.477 A 4.059 4.059 0 0 1 201.187 6.27 Q 200.687 7.2 199.827 7.74 A 3.539 3.539 0 0 1 198.224 8.264 A 4.387 4.387 0 0 1 197.847 8.28 L 193.607 8.28 L 193.707 8.08 L 193.707 13.6 Q 193.707 13.84 193.527 14.02 A 0.627 0.627 0 0 1 193.341 14.151 A 0.564 0.564 0 0 1 193.107 14.2 A 0.701 0.701 0 0 1 192.917 14.176 A 0.513 0.513 0 0 1 192.667 14.02 Q 192.507 13.84 192.507 13.6 L 192.507 0.8 Q 192.507 0.56 192.687 0.38 A 0.627 0.627 0 0 1 192.872 0.249 A 0.564 0.564 0 0 1 193.107 0.2 Z M 193.587 7.12 L 197.847 7.12 A 2.628 2.628 0 0 0 198.595 7.017 A 2.215 2.215 0 0 0 199.207 6.73 A 2.646 2.646 0 0 0 200.072 5.758 A 3.147 3.147 0 0 0 200.117 5.67 A 3.232 3.232 0 0 0 200.435 4.482 A 3.879 3.879 0 0 0 200.447 4.18 Q 200.447 3.36 200.117 2.73 Q 199.787 2.1 199.207 1.74 A 2.387 2.387 0 0 0 198.247 1.406 A 3.067 3.067 0 0 0 197.847 1.38 L 193.607 1.38 L 193.707 1.2 L 193.707 7.24 L 193.587 7.12 Z" id="15" vector-effect="non-scaling-stroke"/><path d="M 216.734 8.981 A 8.858 8.858 0 0 0 216.907 7.2 A 9.469 9.469 0 0 0 216.863 6.286 A 7.751 7.751 0 0 0 216.417 4.31 A 7.731 7.731 0 0 0 216.386 4.229 A 6.807 6.807 0 0 0 215.027 2.03 Q 214.127 1.06 212.897 0.53 A 6.267 6.267 0 0 0 212.065 0.239 A 7.032 7.032 0 0 0 210.207 0 A 7.748 7.748 0 0 0 209.734 0.014 A 6.572 6.572 0 0 0 207.517 0.53 Q 206.287 1.06 205.387 2.03 A 6.568 6.568 0 0 0 205.222 2.215 A 6.875 6.875 0 0 0 203.997 4.31 A 7.401 7.401 0 0 0 203.679 5.419 A 8.858 8.858 0 0 0 203.507 7.2 A 9.469 9.469 0 0 0 203.55 8.114 A 7.751 7.751 0 0 0 203.997 10.09 A 7.731 7.731 0 0 0 204.028 10.172 A 6.807 6.807 0 0 0 205.387 12.37 Q 206.287 13.34 207.517 13.87 A 6.267 6.267 0 0 0 208.349 14.161 A 7.032 7.032 0 0 0 210.207 14.4 A 7.748 7.748 0 0 0 210.68 14.386 A 6.572 6.572 0 0 0 212.897 13.87 Q 214.127 13.34 215.027 12.37 A 6.568 6.568 0 0 0 215.192 12.185 A 6.875 6.875 0 0 0 216.417 10.09 A 7.401 7.401 0 0 0 216.734 8.981 Z M 215.627 7.2 Q 215.627 5.42 214.937 4.07 A 5.336 5.336 0 0 0 213.604 2.377 A 5.145 5.145 0 0 0 213.027 1.96 A 5.034 5.034 0 0 0 210.841 1.231 A 6.287 6.287 0 0 0 210.207 1.2 A 5.597 5.597 0 0 0 208.497 1.454 A 4.942 4.942 0 0 0 207.397 1.96 Q 206.167 2.72 205.477 4.07 A 6.229 6.229 0 0 0 204.872 6.002 A 8.132 8.132 0 0 0 204.787 7.2 Q 204.787 8.98 205.477 10.33 Q 206.167 11.68 207.397 12.44 A 5.12 5.12 0 0 0 209.769 13.185 A 6.28 6.28 0 0 0 210.207 13.2 Q 211.807 13.2 213.027 12.44 A 5.222 5.222 0 0 0 214.915 10.372 A 6.188 6.188 0 0 0 214.937 10.33 A 6.229 6.229 0 0 0 215.541 8.399 A 8.132 8.132 0 0 0 215.627 7.2 Z M 206.807 15.3 L 210.247 14.06 L 212.087 14.12 L 208.907 15.2 L 209.167 14.92 Q 210.007 14.92 210.667 15.16 Q 211.327 15.4 211.937 15.73 Q 212.547 16.06 213.227 16.31 A 3.962 3.962 0 0 0 214.049 16.511 A 5.347 5.347 0 0 0 214.787 16.56 Q 215.382 16.56 215.819 16.426 A 2.162 2.162 0 0 0 216.077 16.33 Q 216.419 16.176 216.676 16.044 A 6.94 6.94 0 0 0 216.907 15.92 A 2.947 2.947 0 0 0 217.208 15.714 A 2.302 2.302 0 0 0 217.417 15.53 A 0.838 0.838 0 0 1 217.568 15.408 A 0.56 0.56 0 0 1 217.867 15.32 Q 218.087 15.32 218.247 15.47 A 0.499 0.499 0 0 1 218.405 15.809 A 0.678 0.678 0 0 1 218.407 15.86 A 0.715 0.715 0 0 1 218.309 16.213 Q 218.249 16.32 218.152 16.425 A 1.599 1.599 0 0 1 218.057 16.52 A 2.914 2.914 0 0 1 217.708 16.791 Q 217.521 16.916 217.294 17.033 A 5.376 5.376 0 0 1 217.137 17.11 Q 216.567 17.38 215.937 17.53 Q 215.307 17.68 214.747 17.68 A 8.907 8.907 0 0 1 213.915 17.644 Q 213.51 17.605 213.163 17.528 A 4.37 4.37 0 0 1 212.767 17.42 Q 211.967 17.16 211.367 16.82 Q 210.767 16.48 210.147 16.22 Q 209.527 15.96 208.667 15.96 A 1.828 1.828 0 0 0 208.354 15.986 A 1.344 1.344 0 0 0 208.037 16.08 Q 207.767 16.2 207.537 16.31 Q 207.307 16.42 207.047 16.42 A 0.541 0.541 0 0 1 206.65 16.254 A 0.689 0.689 0 0 1 206.637 16.24 Q 206.467 16.06 206.467 15.8 A 0.584 0.584 0 0 1 206.503 15.588 Q 206.578 15.394 206.807 15.3 Z" id="16" vector-effect="non-scaling-stroke"/><path d="M 219.927 13.6 L 219.927 0.8 Q 219.927 0.56 220.107 0.38 A 0.627 0.627 0 0 1 220.292 0.249 A 0.564 0.564 0 0 1 220.527 0.2 L 225.927 0.2 A 4.545 4.545 0 0 1 227.133 0.355 A 3.886 3.886 0 0 1 227.967 0.69 Q 228.867 1.18 229.377 2.04 A 3.673 3.673 0 0 1 229.881 3.746 A 4.428 4.428 0 0 1 229.887 3.98 A 4.225 4.225 0 0 1 229.742 5.099 A 3.758 3.758 0 0 1 229.567 5.6 Q 229.247 6.34 228.667 6.85 Q 228.087 7.36 227.367 7.6 L 226.667 7.38 Q 227.407 7.44 228.047 7.85 A 3.015 3.015 0 0 1 229.027 8.883 A 3.552 3.552 0 0 1 229.077 8.97 A 3.188 3.188 0 0 1 229.398 9.861 Q 229.478 10.243 229.487 10.68 Q 229.507 11.54 229.577 12.02 Q 229.641 12.464 229.766 12.703 A 0.913 0.913 0 0 0 229.787 12.74 A 1.122 1.122 0 0 0 230.04 13.043 A 1.054 1.054 0 0 0 230.147 13.12 Q 230.347 13.24 230.417 13.46 A 0.541 0.541 0 0 1 230.441 13.579 Q 230.452 13.714 230.389 13.84 A 0.598 0.598 0 0 1 230.367 13.88 A 0.52 0.52 0 0 1 230.264 14.023 A 0.463 0.463 0 0 1 230.137 14.11 Q 229.987 14.18 229.827 14.18 A 0.681 0.681 0 0 1 229.582 14.133 A 0.836 0.836 0 0 1 229.507 14.1 A 1.679 1.679 0 0 1 229.269 13.933 Q 229.104 13.797 228.937 13.6 A 1.782 1.782 0 0 1 228.733 13.3 Q 228.647 13.143 228.572 12.948 A 4.284 4.284 0 0 1 228.457 12.6 A 3.886 3.886 0 0 1 228.356 12.137 Q 228.267 11.571 228.267 10.76 A 4.008 4.008 0 0 0 228.234 10.236 Q 228.177 9.8 228.017 9.48 A 2.316 2.316 0 0 0 227.752 9.062 A 1.786 1.786 0 0 0 227.377 8.71 Q 226.987 8.44 226.517 8.33 A 4.262 4.262 0 0 0 225.976 8.238 A 3.461 3.461 0 0 0 225.627 8.22 L 220.967 8.22 L 221.187 7.94 L 221.187 13.6 Q 221.187 13.84 221.027 14.02 A 0.527 0.527 0 0 1 220.647 14.199 A 0.719 0.719 0 0 1 220.607 14.2 Q 220.307 14.2 220.117 14.02 A 0.642 0.642 0 0 1 219.99 13.858 A 0.537 0.537 0 0 1 219.927 13.6 Z M 221.187 7.4 L 220.967 7.12 L 225.987 7.12 Q 226.667 7.06 227.267 6.67 Q 227.867 6.28 228.237 5.6 A 3.017 3.017 0 0 0 228.567 4.587 A 3.905 3.905 0 0 0 228.607 4.02 A 2.765 2.765 0 0 0 228.437 3.037 A 2.476 2.476 0 0 0 227.837 2.13 A 2.605 2.605 0 0 0 226.364 1.419 A 3.626 3.626 0 0 0 225.827 1.38 L 221.047 1.38 L 221.187 1.1 L 221.187 7.4 Z" id="17" vector-effect="non-scaling-stroke"/><path d="M 237.07 14.401 A 8.842 8.842 0 0 0 237.187 14.4 A 6.78 6.78 0 0 0 238.31 14.295 A 4.987 4.987 0 0 0 239.557 13.9 A 4.753 4.753 0 0 0 239.978 13.674 A 3.852 3.852 0 0 0 241.147 12.6 Q 241.727 11.78 241.727 10.76 A 5.943 5.943 0 0 0 241.719 10.447 Q 241.698 10.057 241.625 9.722 A 3.069 3.069 0 0 0 241.377 9 Q 241.027 8.3 240.417 7.84 A 5.327 5.327 0 0 0 239.976 7.542 A 6.208 6.208 0 0 0 239.017 7.07 Q 238.227 6.76 237.367 6.52 Q 236.487 6.22 235.707 5.87 A 4.349 4.349 0 0 1 235.153 5.574 A 3.321 3.321 0 0 1 234.447 4.98 A 1.829 1.829 0 0 1 234.046 4.233 A 2.409 2.409 0 0 1 233.967 3.6 Q 233.967 2.84 234.397 2.3 A 2.458 2.458 0 0 1 234.944 1.797 A 3.136 3.136 0 0 1 235.577 1.47 A 4.131 4.131 0 0 1 236.328 1.261 A 5.235 5.235 0 0 1 237.267 1.18 Q 237.947 1.18 238.577 1.36 A 4.877 4.877 0 0 1 238.655 1.383 A 4.349 4.349 0 0 1 239.727 1.87 A 4.06 4.06 0 0 1 240.049 2.096 A 3.296 3.296 0 0 1 240.587 2.62 A 0.551 0.551 0 0 0 240.591 2.624 A 0.462 0.462 0 0 0 240.927 2.76 Q 241.167 2.76 241.367 2.56 Q 241.567 2.36 241.567 2.16 A 0.464 0.464 0 0 0 241.565 2.121 Q 241.551 1.949 241.408 1.751 A 1.707 1.707 0 0 0 241.267 1.58 A 3.568 3.568 0 0 0 240.501 0.886 A 4.452 4.452 0 0 0 239.537 0.4 Q 238.447 0 237.267 0 A 6.825 6.825 0 0 0 236.216 0.078 A 5.102 5.102 0 0 0 234.877 0.47 A 4.542 4.542 0 0 0 234.363 0.744 A 3.554 3.554 0 0 0 233.287 1.76 A 3.154 3.154 0 0 0 232.935 2.437 A 3.411 3.411 0 0 0 232.727 3.64 A 5.333 5.333 0 0 0 232.729 3.785 Q 232.752 4.632 233.047 5.24 Q 233.367 5.9 233.947 6.35 A 5.3 5.3 0 0 0 234.286 6.592 A 6.012 6.012 0 0 0 235.267 7.11 Q 236.007 7.42 236.827 7.66 A 16.784 16.784 0 0 1 237.609 7.915 A 13.424 13.424 0 0 1 238.647 8.33 A 4.523 4.523 0 0 1 239.238 8.65 A 3.44 3.44 0 0 1 239.967 9.27 A 1.945 1.945 0 0 1 240.393 10.107 A 2.757 2.757 0 0 1 240.467 10.76 Q 240.467 11.5 240.027 12.06 A 2.558 2.558 0 0 1 239.528 12.542 A 3.108 3.108 0 0 1 238.837 12.92 Q 238.087 13.22 237.127 13.22 Q 235.987 13.22 234.997 12.78 Q 234.007 12.34 233.227 11.5 A 0.81 0.81 0 0 0 233.118 11.408 A 0.568 0.568 0 0 0 232.787 11.3 A 0.536 0.536 0 0 0 232.511 11.375 A 0.708 0.708 0 0 0 232.357 11.5 A 0.819 0.819 0 0 0 232.282 11.59 A 0.593 0.593 0 0 0 232.167 11.94 Q 232.167 12.1 232.237 12.22 Q 232.307 12.34 232.407 12.42 A 8.594 8.594 0 0 0 233.186 13.1 A 6.756 6.756 0 0 0 234.547 13.92 Q 235.624 14.401 237.07 14.401 Z" id="18" vector-effect="non-scaling-stroke"/><path d="M 248.107 13.6 L 248.107 0.86 L 249.347 0.86 L 249.347 13.6 Q 249.347 13.84 249.167 14.02 A 0.597 0.597 0 0 1 248.735 14.2 A 0.745 0.745 0 0 1 248.727 14.2 A 0.708 0.708 0 0 1 248.525 14.173 A 0.551 0.551 0 0 1 248.277 14.02 Q 248.107 13.84 248.107 13.6 Z M 253.487 1.34 L 243.967 1.34 Q 243.727 1.34 243.547 1.18 A 0.527 0.527 0 0 1 243.368 0.8 A 0.719 0.719 0 0 1 243.367 0.76 A 0.51 0.51 0 0 1 243.525 0.38 A 0.627 0.627 0 0 1 243.547 0.36 Q 243.727 0.2 243.967 0.2 L 253.487 0.2 Q 253.727 0.2 253.907 0.36 A 0.527 0.527 0 0 1 254.086 0.74 A 0.719 0.719 0 0 1 254.087 0.78 A 0.604 0.604 0 0 1 254.06 0.963 A 0.478 0.478 0 0 1 253.907 1.19 Q 253.727 1.34 253.487 1.34 Z" id="19" vector-effect="non-scaling-stroke"/><path d="M 267.147 0.8 L 267.147 9.08 Q 267.147 10.56 266.447 11.76 Q 265.747 12.96 264.567 13.67 A 4.993 4.993 0 0 1 262.182 14.374 A 6.001 6.001 0 0 1 261.907 14.38 A 5.297 5.297 0 0 1 260.049 14.06 A 4.932 4.932 0 0 1 259.237 13.67 Q 258.047 12.96 257.347 11.76 Q 256.647 10.56 256.647 9.08 L 256.647 0.8 A 0.651 0.651 0 0 1 256.681 0.583 A 0.561 0.561 0 0 1 256.817 0.37 A 0.56 0.56 0 0 1 257.088 0.222 Q 257.176 0.201 257.28 0.2 A 1.063 1.063 0 0 1 257.287 0.2 Q 257.527 0.2 257.707 0.37 A 0.563 0.563 0 0 1 257.886 0.78 A 0.736 0.736 0 0 1 257.887 0.8 L 257.887 9.08 A 4.188 4.188 0 0 0 258.096 10.421 A 3.781 3.781 0 0 0 258.437 11.16 Q 258.987 12.08 259.907 12.63 Q 260.827 13.18 261.907 13.18 Q 263.027 13.18 263.947 12.63 Q 264.867 12.08 265.417 11.16 A 3.904 3.904 0 0 0 265.958 9.366 A 4.713 4.713 0 0 0 265.967 9.08 L 265.967 0.8 Q 265.967 0.54 266.127 0.37 A 0.533 0.533 0 0 1 266.475 0.204 A 0.735 0.735 0 0 1 266.547 0.2 A 0.743 0.743 0 0 1 266.732 0.222 A 0.519 0.519 0 0 1 266.987 0.37 A 0.583 0.583 0 0 1 267.143 0.721 A 0.782 0.782 0 0 1 267.147 0.8 Z" id="20" vector-effect="non-scaling-stroke"/><path d="M 281.587 1.04 L 276.247 13.8 A 0.851 0.851 0 0 1 276.144 13.961 A 0.647 0.647 0 0 1 275.987 14.1 Q 275.827 14.2 275.667 14.2 Q 275.487 14.2 275.327 14.1 Q 275.167 14 275.107 13.82 L 269.787 1.08 A 1.53 1.53 0 0 1 269.769 1.024 Q 269.758 0.985 269.747 0.94 A 0.649 0.649 0 0 1 269.731 0.849 A 0.869 0.869 0 0 1 269.727 0.76 A 0.576 0.576 0 0 1 269.763 0.552 A 0.517 0.517 0 0 1 269.917 0.34 Q 270.107 0.18 270.307 0.18 A 0.614 0.614 0 0 1 270.603 0.25 Q 270.734 0.321 270.826 0.463 A 0.959 0.959 0 0 1 270.907 0.62 L 275.907 12.58 L 275.547 12.58 L 280.467 0.58 A 0.957 0.957 0 0 1 280.591 0.388 A 0.55 0.55 0 0 1 281.027 0.18 Q 281.307 0.18 281.477 0.34 A 0.524 0.524 0 0 1 281.646 0.721 A 0.664 0.664 0 0 1 281.647 0.74 A 0.749 0.749 0 0 1 281.629 0.899 A 1.018 1.018 0 0 1 281.587 1.04 Z" id="21" vector-effect="non-scaling-stroke"/><path d="M 301.007 1.02 L 296.587 13.82 Q 296.527 14 296.367 14.1 Q 296.207 14.2 296.047 14.2 A 0.764 0.764 0 0 1 295.818 14.167 A 0.68 0.68 0 0 1 295.687 14.11 A 0.513 0.513 0 0 1 295.5 13.927 A 0.702 0.702 0 0 1 295.447 13.82 L 291.907 5.06 L 292.067 5.1 L 288.527 13.82 A 0.616 0.616 0 0 1 288.436 13.979 A 0.506 0.506 0 0 1 288.277 14.11 A 0.761 0.761 0 0 1 288.028 14.193 A 0.709 0.709 0 0 1 287.927 14.2 Q 287.767 14.2 287.617 14.1 Q 287.467 14 287.407 13.82 L 282.987 1.02 Q 282.94 0.896 282.93 0.82 A 0.295 0.295 0 0 1 282.927 0.78 A 0.652 0.652 0 0 1 282.955 0.583 A 0.508 0.508 0 0 1 283.147 0.32 A 0.943 0.943 0 0 1 283.319 0.22 Q 283.451 0.161 283.582 0.16 A 0.609 0.609 0 0 1 283.587 0.16 Q 283.787 0.16 283.947 0.26 Q 284.107 0.36 284.167 0.54 L 288.187 12.26 L 287.967 12.28 L 291.447 3.6 Q 291.507 3.42 291.657 3.31 A 0.477 0.477 0 0 1 291.946 3.217 A 0.606 0.606 0 0 1 292.007 3.22 A 0.606 0.606 0 0 1 292.067 3.217 A 0.477 0.477 0 0 1 292.357 3.31 A 0.706 0.706 0 0 1 292.582 3.589 A 0.832 0.832 0 0 1 292.587 3.6 L 296.027 12.24 L 295.807 12.32 L 299.807 0.54 Q 299.867 0.36 300.027 0.26 Q 300.187 0.16 300.407 0.16 A 0.755 0.755 0 0 1 300.667 0.204 A 0.681 0.681 0 0 1 300.857 0.31 A 0.481 0.481 0 0 1 301.028 0.587 A 0.757 0.757 0 0 1 301.047 0.76 A 0.657 0.657 0 0 1 301.043 0.828 Q 301.035 0.905 301.01 1.006 A 2.172 2.172 0 0 1 301.007 1.02 Z" id="22" vector-effect="non-scaling-stroke"/><path d="M 303.447 0.38 L 312.947 13.3 A 0.768 0.768 0 0 1 313.032 13.435 Q 313.078 13.529 313.085 13.624 A 0.464 0.464 0 0 1 313.087 13.66 A 0.629 0.629 0 0 1 313.057 13.859 A 0.509 0.509 0 0 1 312.887 14.1 A 0.789 0.789 0 0 1 312.714 14.207 A 0.605 0.605 0 0 1 312.467 14.26 Q 312.147 14.26 311.987 14.02 L 302.467 1.1 A 0.57 0.57 0 0 1 302.358 0.922 A 0.521 0.521 0 0 1 302.327 0.74 Q 302.327 0.48 302.517 0.31 A 0.674 0.674 0 0 1 302.726 0.18 A 0.614 0.614 0 0 1 302.947 0.14 A 0.682 0.682 0 0 1 303.175 0.177 A 0.574 0.574 0 0 1 303.447 0.38 Z M 302.487 13.34 L 307.087 7.08 L 307.727 8.08 L 303.367 14 A 0.647 0.647 0 0 1 303.215 14.159 A 0.546 0.546 0 0 1 302.887 14.26 A 0.636 0.636 0 0 1 302.722 14.24 A 0.446 0.446 0 0 1 302.487 14.09 A 0.692 0.692 0 0 1 302.399 13.957 A 0.485 0.485 0 0 1 302.347 13.74 A 0.555 0.555 0 0 1 302.373 13.578 Q 302.394 13.508 302.433 13.433 A 1.229 1.229 0 0 1 302.487 13.34 Z M 312.947 1.04 L 308.347 7.3 L 307.687 6.32 L 312.027 0.4 Q 312.227 0.14 312.507 0.14 A 0.638 0.638 0 0 1 312.741 0.182 A 0.587 0.587 0 0 1 312.917 0.29 Q 313.087 0.44 313.087 0.66 A 0.579 0.579 0 0 1 313.005 0.955 A 0.764 0.764 0 0 1 312.947 1.04 Z" id="23" vector-effect="non-scaling-stroke"/><path d="M 324.467 1.1 L 319.767 7.56 L 320.007 6.78 L 320.007 13.6 Q 320.007 13.84 319.827 14.02 A 0.597 0.597 0 0 1 319.395 14.2 A 0.745 0.745 0 0 1 319.387 14.2 A 0.615 0.615 0 0 1 319.163 14.161 A 0.559 0.559 0 0 1 318.957 14.02 Q 318.787 13.84 318.787 13.6 L 318.787 6.92 L 318.887 7.4 L 314.307 1.14 A 0.772 0.772 0 0 1 314.214 0.995 A 0.682 0.682 0 0 1 314.187 0.93 A 0.69 0.69 0 0 1 314.155 0.816 A 0.544 0.544 0 0 1 314.147 0.72 A 0.523 0.523 0 0 1 314.316 0.326 A 0.682 0.682 0 0 1 314.357 0.29 A 0.862 0.862 0 0 1 314.521 0.184 A 0.602 0.602 0 0 1 314.787 0.12 Q 315.087 0.12 315.287 0.4 L 319.587 6.26 L 319.287 6.22 L 323.467 0.4 Q 323.667 0.12 323.987 0.12 Q 324.247 0.12 324.417 0.31 A 0.727 0.727 0 0 1 324.527 0.469 A 0.554 0.554 0 0 1 324.587 0.72 A 0.598 0.598 0 0 1 324.558 0.907 A 0.551 0.551 0 0 1 324.557 0.91 Q 324.527 1 324.467 1.1 Z" id="24" vector-effect="non-scaling-stroke"/><path d="M 327.147 0.2 L 336.247 0.2 A 0.812 0.812 0 0 1 336.455 0.225 A 0.591 0.591 0 0 1 336.727 0.38 A 0.627 0.627 0 0 1 336.857 0.565 A 0.564 0.564 0 0 1 336.907 0.8 Q 336.907 1 336.787 1.16 L 327.687 13.22 L 327.647 13.06 L 336.227 13.06 Q 336.467 13.06 336.647 13.22 A 0.527 0.527 0 0 1 336.79 13.419 A 0.536 0.536 0 0 1 336.827 13.62 A 0.541 0.541 0 0 1 336.66 14.017 A 0.689 0.689 0 0 1 336.647 14.03 Q 336.467 14.2 336.227 14.2 L 326.647 14.2 A 0.634 0.634 0 0 1 326.43 14.165 A 0.547 0.547 0 0 1 326.197 14 Q 326.027 13.8 326.027 13.58 Q 326.027 13.38 326.147 13.22 L 335.207 1.26 L 335.327 1.34 L 327.147 1.34 A 0.651 0.651 0 0 1 326.93 1.305 A 0.561 0.561 0 0 1 326.717 1.17 A 0.558 0.558 0 0 1 326.547 0.768 A 0.672 0.672 0 0 1 326.547 0.76 A 0.555 0.555 0 0 1 326.591 0.535 A 0.533 0.533 0 0 1 326.717 0.36 A 0.583 0.583 0 0 1 327.068 0.204 A 0.782 0.782 0 0 1 327.147 0.2 Z" id="25" vector-effect="non-scaling-stroke"/></g></svg>